<svg width="402" height="705" fill="none" xmlns="http://www.w3.org/2000/svg"><path d="M311 393.1v151.2c0 9.2-7.4 16.6-16.6 16.6-9.2 0-16.6-7.4-16.6-16.6V393.1" fill="#5BB889"/><path d="M311 393.1v151.2c0 9.2-7.4 16.6-16.6 16.6-9.2 0-16.6-7.4-16.6-16.6V393.1" stroke="#1E193B" stroke-width="3" stroke-miterlimit="10" stroke-linecap="round" stroke-linejoin="round"/><g opacity=".1"><path d="M311 393.1v151.2c0 9.2-7.4 16.6-16.6 16.6-9.2 0-16.6-7.4-16.6-16.6V393.1" fill="#1E193B"/><path d="M311 393.1v151.2c0 9.2-7.4 16.6-16.6 16.6-9.2 0-16.6-7.4-16.6-16.6V393.1" stroke="#1E193B" stroke-width="3" stroke-miterlimit="10" stroke-linecap="round" stroke-linejoin="round"/></g><path d="M220.9 461.6v183.9c0 9.2 7.4 16.6 16.6 16.6 9.2 0 16.6-7.4 16.6-16.6V461.6h-33.2z" fill="#5BB889" stroke="#1E193B" stroke-width="3" stroke-miterlimit="10" stroke-linecap="round" stroke-linejoin="round"/><path opacity=".1" d="M220.9 461.6v183.9c0 9.2 7.4 16.6 16.6 16.6 9.2 0 16.6-7.4 16.6-16.6V461.6h-33.2z" fill="#1E193B" stroke="#1E193B" stroke-width="3" stroke-miterlimit="10" stroke-linecap="round" stroke-linejoin="round"/><path opacity=".1" d="M220.9 522.9c11.3-.3 22.4-1.6 33.2-3.9v-57.4h-33.2v61.3z" fill="#1E193B" stroke="#1E193B" stroke-width="3" stroke-miterlimit="10" stroke-linecap="round" stroke-linejoin="round"/><path d="M220.9 635.9v66.7h97.7c0-10-6.8-18.7-16.5-21.1L262 671.3c-4.7-1.2-8-5.4-8-10.3v-25.1h-33.1z" fill="#E29F02" stroke="#1E193B" stroke-width="3" stroke-miterlimit="10" stroke-linecap="round" stroke-linejoin="round"/><path opacity=".1" d="M220.9 635.9v66.7h97.7c0-10-6.8-18.7-16.5-21.1L262 671.3c-4.7-1.2-8-5.4-8-10.3v-25.1h-33.1z" fill="#1E193B" stroke="#1E193B" stroke-width="3" stroke-miterlimit="10" stroke-linecap="round" stroke-linejoin="round"/><path d="M216 119c-101.4 0-183.5 82.2-183.5 183.5 0 87.6 61.4 160.9 143.5 179.1v163.9c0 9.2 7.4 16.6 16.6 16.6 9.2 0 16.6-7.4 16.6-16.6V485.9c2.3.1 4.6.1 6.9.1 101.4 0 183.5-82.2 183.5-183.5S317.3 119 216 119z" fill="#5BB889" stroke="#1E193B" stroke-width="3" stroke-miterlimit="10" stroke-linecap="round" stroke-linejoin="round"/><g stroke="#1E193B" stroke-width="3" stroke-miterlimit="10" stroke-linecap="round" stroke-linejoin="round"><path d="M334.5 287.4c9.223 0 16.7-7.477 16.7-16.7 0-9.223-7.477-16.7-16.7-16.7-9.223 0-16.7 7.477-16.7 16.7 0 9.223 7.477 16.7 16.7 16.7z" fill="#fff"/><path d="M334.5 277.3a6.6 6.6 0 100-13.2 6.6 6.6 0 000 13.2z" fill="#1E193B"/><path d="M354.2 328.8c9.223 0 16.7-7.477 16.7-16.7 0-9.223-7.477-16.7-16.7-16.7-9.223 0-16.7 7.477-16.7 16.7 0 9.223 7.477 16.7 16.7 16.7z" fill="#fff"/><path d="M354.2 318.7a6.6 6.6 0 100-13.2 6.6 6.6 0 000 13.2z" fill="#1E193B"/><path d="M314.7 328.8c9.223 0 16.7-7.477 16.7-16.7 0-9.223-7.477-16.7-16.7-16.7-9.223 0-16.7 7.477-16.7 16.7 0 9.223 7.477 16.7 16.7 16.7z" fill="#fff"/><path d="M314.7 318.7a6.6 6.6 0 100-13.2 6.6 6.6 0 000 13.2z" fill="#1E193B"/><path d="M274.7 328.8c9.223 0 16.7-7.477 16.7-16.7 0-9.223-7.477-16.7-16.7-16.7-9.223 0-16.7 7.477-16.7 16.7 0 9.223 7.477 16.7 16.7 16.7z" fill="#fff"/><path d="M274.7 318.7a6.6 6.6 0 100-13.2 6.6 6.6 0 000 13.2z" fill="#1E193B"/><path d="M294.5 287.4c9.223 0 16.7-7.477 16.7-16.7 0-9.223-7.477-16.7-16.7-16.7-9.223 0-16.7 7.477-16.7 16.7 0 9.223 7.477 16.7 16.7 16.7z" fill="#fff"/><path d="M294.5 277.3a6.6 6.6 0 100-13.2 6.6 6.6 0 000 13.2z" fill="#1E193B"/></g><g stroke="#1E193B" stroke-width="3" stroke-miterlimit="10" stroke-linecap="round" stroke-linejoin="round"><path d="M130.6 257.2c-25 0-45.3 20.3-45.3 45.3 0 25 20.3 45.3 45.3 45.3"/><path d="M117.8 312.8c5.7 0 10.3-4.6 10.3-10.3 0-5.7-4.6-10.3-10.3-10.3"/></g><path d="M281.6 352.7h65.7" stroke="#1E193B" stroke-width="3" stroke-miterlimit="10" stroke-linecap="round" stroke-linejoin="round"/><path d="M175.9 635.9v66.7h97.7c0-10-6.8-18.7-16.5-21.1L217 671.3c-4.7-1.2-8-5.4-8-10.3v-25.1h-33.1z" fill="#E29F02" stroke="#1E193B" stroke-width="3" stroke-miterlimit="10" stroke-linecap="round" stroke-linejoin="round"/><path d="M339.9 235c-3.2 0-6.5-.9-9.2-2.8-.1-.1-.2-.1-.2-.1-3.3-2.8-5.5-6.9-5.5-11.5 0-4.1 1.3-8.8 5.5-8.8 4.1 0 5.5 4.6 5.5 8.8 0 4.6-2.2 8.9-5.5 11.5 0 0-.1.1-.2.1-5.5 3.8-12.9 3.8-18.4 0-.1-.1-.2-.1-.2-.1-3.3-2.8-5.5-6.9-5.5-11.5 0-4.1 1.3-8.8 5.5-8.8 4.1 0 5.5 4.6 5.5 8.8 0 4.6-2.1 8.9-5.5 11.5 0 0-.1.1-.2.1-5.5 3.8-12.9 3.8-18.4 0-.1-.1-.2-.1-.2-.1-3.3-2.8-5.5-6.9-5.5-11.5 0-4.1 1.3-8.8 5.5-8.8 4.1 0 5.5 4.6 5.5 8.8 0 4.6-2.2 8.9-5.5 11.5 0 0-.1.1-.2.1-2.8 1.8-6 2.8-9.2 2.8" stroke="#1E193B" stroke-width="3" stroke-miterlimit="10" stroke-linecap="round" stroke-linejoin="round"/><g fill="#E29F02" stroke="#1E193B" stroke-width="3" stroke-miterlimit="10" stroke-linecap="round" stroke-linejoin="round"><path d="M11.6 106.5c-14.5 16.1-13.2 40.8 2.9 55.3l18.7 16.8 52.4-58.2-18.7-16.8C50.8 89.1 26 90.4 11.6 106.5z"/><path d="M96.8 107.9l-74.9 83.2c-4.6 5.1-4.2 12.9.9 17.5 5.1 4.6 12.9 4.2 17.5-.9l74.9-83.2c4.6-5.1 4.2-12.9-.9-17.5-5.1-4.6-13-4.2-17.5.9zm-22.148 2.735l-51.855 57.59 10.85 9.769 51.854-57.59-10.849-9.769z"/></g><path d="M161.3 413.1v141.2c0 9.2-7.4 16.6-16.6 16.6-9.2 0-16.6-7.4-16.6-16.6V413.1" fill="#5BB889"/><path d="M161.3 413.1v141.2c0 9.2-7.4 16.6-16.6 16.6-9.2 0-16.6-7.4-16.6-16.6V413.1" stroke="#1E193B" stroke-width="3" stroke-miterlimit="10" stroke-linecap="round" stroke-linejoin="round"/><path d="M233.2 123V34.9h71.6c9.1 0 16.5-7.4 16.5-16.5s-7.4-16.5-16.5-16.5h-77.1c-15.1 0-27.4 12.3-27.4 27.4v93.6" fill="#5BB889"/><path d="M233.2 123V34.9h71.6c9.1 0 16.5-7.4 16.5-16.5s-7.4-16.5-16.5-16.5h-77.1c-15.1 0-27.4 12.3-27.4 27.4v93.6" stroke="#1E193B" stroke-width="3" stroke-miterlimit="10" stroke-linecap="round" stroke-linejoin="round"/><g stroke="#1E193B" stroke-width="3" stroke-miterlimit="10" stroke-linecap="round" stroke-linejoin="round"><path d="M304.8 35c9.113 0 16.5-7.387 16.5-16.5S313.913 2 304.8 2s-16.5 7.387-16.5 16.5S295.687 35 304.8 35z" fill="#fff"/><path d="M304.8 25a6.5 6.5 0 100-13 6.5 6.5 0 000 13z" fill="#1E193B"/></g></svg>