<svg width="21000" height="3000" fill="none" xmlns="http://www.w3.org/2000/svg"><g clip-path="url(#clip0)"><path d="M18084 2845.03l-380.2-686.65c-13.9-25.12-46.6-24.12-59.3 1.82l-132.5 271.04c-12.7 25.94-45.4 26.94-59.3 1.82l-95.9-173.15c-13.9-25.12-46.6-24.11-59.2 1.83l-57.3 117.17c-12.7 25.94-45.4 26.94-59.3 1.82l-123.1-222.35c-13.9-25.12-46.6-24.12-59.3 1.82l-54.8 112.16c-12.7 25.94-45.4 26.94-59.3 1.82l-64.1-115.8c-14-25.12-46.6-24.12-59.3 1.82l-115.7 236.65c-12.7 25.94-45.4 26.95-59.3 1.82-13.9-25.12-46.6-24.12-59.3 1.82l-73.8 150.88c-12.6 25.94-45.3 26.94-59.2 1.82l-218.6-394.81c-13.9-25.12-46.6-24.12-59.3 1.82l-112 229.03c-12.7 25.94-45.4 26.94-59.3 1.82l-278.7-503.51c-13.9-25.12-46.6-24.11-59.3 1.82l-219.3 448.55c-12.7 25.94-45.4 26.94-59.3 1.82l-100.4-181.32c-13.9-25.13-46.6-24.12-59.3 1.82l-132.5 271.04c-12.7 25.93-45.4 26.94-59.3 1.82l-95.8-173.15c-14-25.12-46.6-24.12-59.3 1.82l-57.3 117.18c-12.7 25.94-45.4 26.94-59.3 1.82l-123.1-222.35c-13.9-25.13-46.6-24.12-59.3 1.82l-54.8 112.15c-12.7 25.94-45.4 26.95-59.3 1.82l-64.1-115.79c-13.9-25.13-46.6-24.12-59.3 1.82l-115.7 236.65c-12.7 25.94-45.4 26.94-59.3 1.82-13.9-25.12-46.6-24.12-59.3 1.82l-73.7 150.87c-12.7 25.94-45.4 26.95-59.3 1.82l-218.6-394.8c-13.9-25.13-46.6-24.12-59.3 1.82l-112 229.03c-12.6 25.94-45.3 26.94-59.2 1.82l-278.8-503.51c-13.9-25.12-46.6-24.12-59.3 1.82l-187.5 383.43-187.4-383.43c-12.7-25.94-45.4-26.94-59.3-1.82l-278.8 503.51c-13.9 25.12-46.6 24.12-59.3-1.82l-111.9-229.03c-12.7-25.94-45.4-26.95-59.3-1.82l-218.6 394.8c-13.9 25.13-46.6 24.12-59.3-1.82l-73.7-150.87c-12.7-25.94-45.4-26.94-59.3-1.82-13.9 25.12-46.6 24.12-59.3-1.82l-115.7-236.65c-12.7-25.94-45.4-26.95-59.3-1.82l-64.1 115.79c-13.9 25.13-46.6 24.12-59.3-1.82l-54.8-112.15c-12.7-25.94-45.4-26.95-59.3-1.82l-123.1 222.35c-13.9 25.12-46.6 24.12-59.3-1.82l-57.3-117.18c-12.7-25.94-45.4-26.94-59.3-1.82l-95.8 173.15c-13.9 25.12-46.6 24.11-59.3-1.82l-132.5-271.04c-12.7-25.94-45.4-26.95-59.3-1.82l-100.4 181.32c-13.9 25.12-46.6 24.12-59.3-1.82l-219.3-448.55c-12.7-25.93-45.4-26.94-59.3-1.82l-278.75 503.51c-13.91 25.12-46.6 24.12-59.28-1.82L9770 2160.2c-12.69-25.94-45.37-26.94-59.28-1.82l-218.59 394.81c-13.91 25.12-46.6 24.12-59.28-1.82l-73.77-150.88c-12.67-25.94-45.37-26.94-59.28-1.82-13.91 25.13-46.6 24.12-59.29-1.82l-115.7-236.65c-12.67-25.94-45.37-26.94-59.28-1.82l-64.11 115.8c-13.91 25.12-46.6 24.12-59.29-1.82l-54.84-112.16c-12.67-25.94-45.37-26.94-59.28-1.82l-123.1 222.35c-13.91 25.12-46.6 24.12-59.28-1.82l-57.29-117.17c-12.67-25.94-45.37-26.95-59.28-1.83l-95.87 173.15c-13.91 25.12-46.6 24.12-59.28-1.82l-132.52-271.04c-12.67-25.94-45.37-26.94-59.28-1.82l-380.16 686.65c-14.33 25.88 2.14 59.44 29.16 59.44H18054.6c27.2-.02 43.7-33.58 29.4-59.44z" fill="#404693"/><path d="M18084 2845.03l-380.2-686.65c-13.9-25.12-46.6-24.12-59.3 1.82l-132.5 271.04c-12.7 25.94-45.4 26.94-59.3 1.82l-95.9-173.15c-13.9-25.12-46.6-24.11-59.2 1.83l-57.3 117.17c-12.7 25.94-45.4 26.94-59.3 1.82l-123.1-222.35c-13.9-25.12-46.6-24.12-59.3 1.82l-54.8 112.16c-12.7 25.94-45.4 26.94-59.3 1.82l-64.1-115.8c-14-25.12-46.6-24.12-59.3 1.82l-115.7 236.65c-12.7 25.94-45.4 26.95-59.3 1.82-13.9-25.12-46.6-24.12-59.3 1.82l-73.8 150.88c-12.6 25.94-45.3 26.94-59.2 1.82l-218.6-394.81c-13.9-25.12-46.6-24.12-59.3 1.82l-112 229.03c-12.7 25.94-45.4 26.94-59.3 1.82l-278.7-503.51c-13.9-25.12-46.6-24.11-59.3 1.82l-219.3 448.55c-12.7 25.94-45.4 26.94-59.3 1.82l-100.4-181.32c-13.9-25.13-46.6-24.12-59.3 1.82l-132.5 271.04c-12.7 25.93-45.4 26.94-59.3 1.82l-95.8-173.15c-14-25.12-46.6-24.12-59.3 1.82l-57.3 117.18c-12.7 25.94-45.4 26.94-59.3 1.82l-123.1-222.35c-13.9-25.13-46.6-24.12-59.3 1.82l-54.8 112.15c-12.7 25.94-45.4 26.95-59.3 1.82l-64.1-115.79c-13.9-25.13-46.6-24.12-59.3 1.82l-115.7 236.65c-12.7 25.94-45.4 26.94-59.3 1.82-13.9-25.12-46.6-24.12-59.3 1.82l-73.7 150.87c-12.7 25.94-45.4 26.95-59.3 1.82l-218.6-394.8c-13.9-25.13-46.6-24.12-59.3 1.82l-112 229.03c-12.6 25.94-45.3 26.94-59.2 1.82l-278.8-503.51c-13.9-25.12-46.6-24.12-59.3 1.82l-187.5 383.43-187.4-383.43c-12.7-25.94-45.4-26.94-59.3-1.82l-278.8 503.51c-13.9 25.12-46.6 24.12-59.3-1.82l-111.9-229.03c-12.7-25.94-45.4-26.95-59.3-1.82l-218.6 394.8c-13.9 25.13-46.6 24.12-59.3-1.82l-73.7-150.87c-12.7-25.94-45.4-26.94-59.3-1.82-13.9 25.12-46.6 24.12-59.3-1.82l-115.7-236.65c-12.7-25.94-45.4-26.95-59.3-1.82l-64.1 115.79c-13.9 25.13-46.6 24.12-59.3-1.82l-54.8-112.15c-12.7-25.94-45.4-26.95-59.3-1.82l-123.1 222.35c-13.9 25.12-46.6 24.12-59.3-1.82l-57.3-117.18c-12.7-25.94-45.4-26.94-59.3-1.82l-95.8 173.15c-13.9 25.12-46.6 24.11-59.3-1.82l-132.5-271.04c-12.7-25.94-45.4-26.95-59.3-1.82l-100.4 181.32c-13.9 25.12-46.6 24.12-59.3-1.82l-219.3-448.55c-12.7-25.93-45.4-26.94-59.3-1.82l-278.75 503.51c-13.91 25.12-46.6 24.12-59.28-1.82L9770 2160.2c-12.69-25.94-45.37-26.94-59.28-1.82l-218.59 394.81c-13.91 25.12-46.6 24.12-59.28-1.82l-73.77-150.88c-12.67-25.94-45.37-26.94-59.28-1.82-13.91 25.13-46.6 24.12-59.29-1.82l-115.7-236.65c-12.67-25.94-45.37-26.94-59.28-1.82l-64.11 115.8c-13.91 25.12-46.6 24.12-59.29-1.82l-54.84-112.16c-12.67-25.94-45.37-26.94-59.28-1.82l-123.1 222.35c-13.91 25.12-46.6 24.12-59.28-1.82l-57.29-117.17c-12.67-25.94-45.37-26.95-59.28-1.83l-95.87 173.15c-13.91 25.12-46.6 24.12-59.28-1.82l-132.52-271.04c-12.67-25.94-45.37-26.94-59.28-1.82l-380.16 686.65c-14.33 25.88 2.14 59.44 29.16 59.44H18054.6c27.2-.02 43.7-33.58 29.4-59.44z" stroke="#140E3C" stroke-width="3" stroke-miterlimit="10" stroke-linecap="round" stroke-linejoin="round"/><path d="M8283.24 2845.03l-380.16-686.66c-13.91-25.12-46.6-24.12-59.28 1.82l-132.52 271.04c-12.67 25.94-45.37 26.94-59.28 1.82l-95.87-173.15c-13.91-25.12-46.6-24.12-59.28 1.82l-57.29 117.18c-12.67 25.94-45.37 26.94-59.28 1.82l-123.1-222.35c-13.91-25.12-46.6-24.12-59.28 1.82l-54.84 112.15c-12.68 25.94-45.38 26.95-59.29 1.82l-64.11-115.79c-13.91-25.12-46.6-24.12-59.28 1.82l-115.71 236.65c-12.67 25.94-45.37 26.94-59.28 1.82-13.91-25.12-46.6-24.12-59.29 1.82l-73.76 150.88c-12.67 25.93-45.37 26.94-59.28 1.82l-218.59-394.81c-13.91-25.12-46.6-24.12-59.28 1.82l-111.97 229.03c-12.67 25.94-45.37 26.94-59.28 1.82l-278.77-503.51c-13.91-25.12-46.6-24.12-59.29 1.82l-219.29 448.54c-12.68 25.94-45.38 26.95-59.29 1.82l-100.39-181.32c-13.91-25.12-46.6-24.11-59.29 1.82l-132.51 271.04c-12.68 25.94-45.38 26.95-59.28 1.82l-95.87-173.14c-13.91-25.13-46.6-24.12-59.29 1.82l-57.28 117.17c-12.68 25.94-45.38 26.95-59.29 1.82L4781 2158.39c-13.91-25.12-46.6-24.11-59.29 1.82l-54.84 112.16c-12.67 25.94-45.37 26.94-59.28 1.82l-64.11-115.8c-13.91-25.12-46.6-24.11-59.29 1.82l-115.7 236.66c-12.67 25.93-45.37 26.94-59.28 1.82-13.91-25.13-46.6-24.12-59.29 1.82l-73.76 150.87c-12.68 25.94-45.38 26.94-59.29 1.82l-218.58-394.81c-13.91-25.12-46.6-24.11-59.29 1.82l-111.96 229.03c-12.68 25.94-45.38 26.95-59.29 1.82l-278.67-503.54c-13.91-25.12-46.6-24.12-59.28 1.82l-468.13 957.5c-12.65 25.89 3.93 57.61 30.11 57.61h5362.29c27.02 0 43.49-33.56 29.17-59.42z" fill="#404693"/><path d="M8283.24 2845.03l-380.16-686.66c-13.91-25.12-46.6-24.12-59.28 1.82l-132.52 271.04c-12.67 25.94-45.37 26.94-59.28 1.82l-95.87-173.15c-13.91-25.12-46.6-24.12-59.28 1.82l-57.29 117.18c-12.67 25.94-45.37 26.94-59.28 1.82l-123.1-222.35c-13.91-25.12-46.6-24.12-59.28 1.82l-54.84 112.15c-12.68 25.94-45.38 26.95-59.29 1.82l-64.11-115.79c-13.91-25.12-46.6-24.12-59.28 1.82l-115.71 236.65c-12.67 25.94-45.37 26.94-59.28 1.82-13.91-25.12-46.6-24.12-59.29 1.82l-73.76 150.88c-12.67 25.93-45.37 26.94-59.28 1.82l-218.59-394.81c-13.91-25.12-46.6-24.12-59.28 1.82l-111.97 229.03c-12.67 25.94-45.37 26.94-59.28 1.82l-278.77-503.51c-13.91-25.12-46.6-24.12-59.29 1.82l-219.29 448.54c-12.68 25.94-45.38 26.95-59.29 1.82l-100.39-181.32c-13.91-25.12-46.6-24.11-59.29 1.82l-132.51 271.04c-12.68 25.94-45.38 26.95-59.28 1.82l-95.87-173.14c-13.91-25.13-46.6-24.12-59.29 1.82l-57.28 117.17c-12.68 25.94-45.38 26.95-59.29 1.82L4781 2158.39c-13.91-25.12-46.6-24.11-59.29 1.82l-54.84 112.16c-12.67 25.94-45.37 26.94-59.28 1.82l-64.11-115.8c-13.91-25.12-46.6-24.11-59.29 1.82l-115.7 236.66c-12.67 25.93-45.37 26.94-59.28 1.82-13.91-25.13-46.6-24.12-59.29 1.82l-73.76 150.87c-12.68 25.94-45.38 26.94-59.29 1.82l-218.58-394.81c-13.91-25.12-46.6-24.11-59.29 1.82l-111.96 229.03c-12.68 25.94-45.38 26.95-59.29 1.82l-278.67-503.54c-13.91-25.12-46.6-24.12-59.28 1.82l-468.13 957.5c-12.65 25.89 3.93 57.61 30.11 57.61h5362.29c27.02 0 43.49-33.56 29.17-59.42z" stroke="#140E3C" stroke-width="3" stroke-miterlimit="10" stroke-linecap="round" stroke-linejoin="round"/></g><defs><clipPath id="clip0"><path fill="#fff" d="M0 0h21000v3000H0z"/></clipPath></defs></svg>