<svg width="21000" height="3000" fill="none" xmlns="http://www.w3.org/2000/svg"><g clip-path="url(#clip0)"><path d="M23879.3 2961.91l-984.9-1270.7c-36.1-46.49-120.8-44.64-153.6 3.36l-343.3 501.58c-32.9 48-117.6 49.85-153.6 3.36l-248.4-320.42c-36-46.49-120.7-44.63-153.6 3.37l-148.4 216.85c-32.8 48-117.5 49.86-153.6 3.36l-318.9-411.46c-36-46.49-120.7-44.64-153.6 3.36l-142.1 207.56c-32.8 48-117.5 49.86-153.6 3.37l-166-214.29c-36.1-46.49-120.8-44.64-153.6 3.36l-299.8 437.95c-32.9 48-117.6 49.85-153.6 3.36s-120.7-44.63-153.6 3.37l-191.1 279.2c-32.8 47.99-117.5 49.85-153.6 3.36l-566.3-730.6c-36-46.49-120.7-44.64-153.6 3.36l-290.1 423.82c-32.8 48-117.5 49.86-153.6 3.37l-722.2-931.79c-36-46.49-120.7-44.63-153.6 3.37l-568.1 830.05c-32.9 48-117.6 49.86-153.6 3.36l-260.1-335.55c-36-46.5-120.7-44.64-153.6 3.36l-343.3 501.57c-32.9 48-117.6 49.86-153.6 3.37l-248.4-320.42c-36-46.49-120.7-44.63-153.6 3.37l-148.4 216.85c-32.8 48-117.5 49.85-153.6 3.36l-318.9-411.46c-36-46.5-120.7-44.64-153.6 3.36l-142.1 207.56c-32.8 48-117.5 49.86-153.5 3.36l-166.1-214.28c-36.1-46.5-120.8-44.64-153.6 3.36l-299.8 437.95c-32.8 47.99-117.5 49.85-153.6 3.36-36-46.49-120.7-44.63-153.6 3.37l-191.1 279.19c-32.8 48-117.5 49.86-153.6 3.37l-566.3-730.6c-36-46.5-120.7-44.64-153.6 3.36l-290.1 423.82c-32.8 48-117.5 49.86-153.6 3.37l-722.2-931.79c-36-46.49-120.7-44.63-153.6 3.36l-471.6 689.1-148.3-191.24c-36-46.49-120.7-44.63-153.5 3.37l-343.36 501.57c-32.85 48-117.56 49.86-153.6 3.37l-248.36-320.42c-36.03-46.49-120.73-44.63-153.59 3.36l-148.42 216.85c-32.85 48-117.56 49.86-153.59 3.37l-318.94-411.47c-36.04-46.49-120.73-44.63-153.59 3.37l-142.06 207.56c-32.85 48-117.56 49.85-153.6 3.36l-166.09-214.29c-36.03-46.49-120.73-44.63-153.59 3.37l-299.76 437.94c-32.84 48-117.56 49.86-153.59 3.37-36.04-46.49-120.73-44.64-153.59 3.36l-191.11 279.2c-32.85 48-117.56 49.86-153.59 3.37l-566.31-730.61c-36.03-46.49-120.73-44.63-153.59 3.37l-290.09 423.82c-32.85 48-117.56 49.85-153.59 3.36l-722.23-931.78c-36.04-46.49-120.74-44.64-153.6 3.36l-568.13 830.05c-32.85 48-117.56 49.86-153.6 3.37l-260.09-335.56c-36.04-46.49-120.74-44.63-153.6 3.36l-343.31 501.58c-32.84 48-117.56 49.86-153.59 3.36l-248.36-320.41c-36.04-46.49-120.73-44.64-153.59 3.36l-148.43 216.85c-32.84 48-117.56 49.86-153.59 3.37l-318.94-411.47c-36.04-46.49-120.73-44.63-153.59 3.36l-142.06 207.57c-32.84 47.99-117.56 49.85-153.59 3.36L1722 1691.17c-36.04-46.49-120.74-44.63-153.6 3.36l-299.76 437.95c-32.84 48-117.55 49.86-153.59 3.37-36.04-46.5-120.732-44.64-153.592 3.36l-191.107 279.2c-32.845 48-117.557 49.86-153.593 3.36l-566.301-730.6c-36.036-46.49-120.732-44.63-153.593 3.36l-290.093 423.83c-32.845 47.99-117.557 49.85-153.593 3.36l-721.918-931.75c-36.03-46.49-120.73-44.63-153.59 3.37l-1212.8 1771.93c-32.78 47.91 10.18 106.62 78.02 106.62H23803.7c70 0 112.7-62.11 75.6-109.98z" fill="#2A336C"/><path d="M23879.3 2961.91l-984.9-1270.7c-36.1-46.49-120.8-44.64-153.6 3.36l-343.3 501.58c-32.9 48-117.6 49.85-153.6 3.36l-248.4-320.42c-36-46.49-120.7-44.63-153.6 3.37l-148.4 216.85c-32.8 48-117.5 49.86-153.6 3.36l-318.9-411.46c-36-46.49-120.7-44.64-153.6 3.36l-142.1 207.56c-32.8 48-117.5 49.86-153.6 3.37l-166-214.29c-36.1-46.49-120.8-44.64-153.6 3.36l-299.8 437.95c-32.9 48-117.6 49.85-153.6 3.36s-120.7-44.63-153.6 3.37l-191.1 279.2c-32.8 47.99-117.5 49.85-153.6 3.36l-566.3-730.6c-36-46.49-120.7-44.64-153.6 3.36l-290.1 423.82c-32.8 48-117.5 49.86-153.6 3.37l-722.2-931.79c-36-46.49-120.7-44.63-153.6 3.37l-568.1 830.05c-32.9 48-117.6 49.86-153.6 3.36l-260.1-335.55c-36-46.5-120.7-44.64-153.6 3.36l-343.3 501.57c-32.9 48-117.6 49.86-153.6 3.37l-248.4-320.42c-36-46.49-120.7-44.63-153.6 3.37l-148.4 216.85c-32.8 48-117.5 49.85-153.6 3.36l-318.9-411.46c-36-46.5-120.7-44.64-153.6 3.36l-142.1 207.56c-32.8 48-117.5 49.86-153.5 3.36l-166.1-214.28c-36.1-46.5-120.8-44.64-153.6 3.36l-299.8 437.95c-32.8 47.99-117.5 49.85-153.6 3.36-36-46.49-120.7-44.63-153.6 3.37l-191.1 279.19c-32.8 48-117.5 49.86-153.6 3.37l-566.3-730.6c-36-46.5-120.7-44.64-153.6 3.36l-290.1 423.82c-32.8 48-117.5 49.86-153.6 3.37l-722.2-931.79c-36-46.49-120.7-44.63-153.6 3.36l-471.6 689.1-148.3-191.24c-36-46.49-120.7-44.63-153.5 3.37l-343.36 501.57c-32.85 48-117.56 49.86-153.6 3.37l-248.36-320.42c-36.03-46.49-120.73-44.63-153.59 3.36l-148.42 216.85c-32.85 48-117.56 49.86-153.59 3.37l-318.94-411.47c-36.04-46.49-120.73-44.63-153.59 3.37l-142.06 207.56c-32.85 48-117.56 49.85-153.6 3.36l-166.09-214.29c-36.03-46.49-120.73-44.63-153.59 3.37l-299.76 437.94c-32.84 48-117.56 49.86-153.59 3.37-36.04-46.49-120.73-44.64-153.59 3.36l-191.11 279.2c-32.85 48-117.56 49.86-153.59 3.37l-566.31-730.61c-36.03-46.49-120.73-44.63-153.59 3.37l-290.09 423.82c-32.85 48-117.56 49.85-153.59 3.36l-722.23-931.78c-36.04-46.49-120.74-44.64-153.6 3.36l-568.13 830.05c-32.85 48-117.56 49.86-153.6 3.37l-260.09-335.56c-36.04-46.49-120.74-44.63-153.6 3.36l-343.31 501.58c-32.84 48-117.56 49.86-153.59 3.36l-248.36-320.41c-36.04-46.49-120.73-44.64-153.59 3.36l-148.43 216.85c-32.84 48-117.56 49.86-153.59 3.37l-318.94-411.47c-36.04-46.49-120.73-44.63-153.59 3.36l-142.06 207.57c-32.84 47.99-117.56 49.85-153.59 3.36L1722 1691.17c-36.04-46.49-120.74-44.63-153.6 3.36l-299.76 437.95c-32.84 48-117.55 49.86-153.59 3.37-36.04-46.5-120.732-44.64-153.592 3.36l-191.107 279.2c-32.845 48-117.557 49.86-153.593 3.36l-566.301-730.6c-36.036-46.49-120.732-44.63-153.593 3.36l-290.093 423.83c-32.845 47.99-117.557 49.85-153.593 3.36l-721.918-931.75c-36.03-46.49-120.73-44.63-153.59 3.37l-1212.8 1771.93c-32.78 47.91 10.18 106.62 78.02 106.62H23803.7c70 0 112.7-62.11 75.6-109.98z" stroke="#140E3C" stroke-width="3" stroke-miterlimit="10" stroke-linecap="round" stroke-linejoin="round"/><path d="M5850.14 1382.15c0-45.67 31.79-85.36 78.49-105.46 7.25-3.13 5.29-11.88-2.85-12.81-5.95-.67-12.02-1.08-18.18-1.18-81.79-1.25-149.97 51.97-150.98 117.93-1.03 66.68 65.67 120.98 148.11 120.98 7.19 0 14.26-.41 21.17-1.21 8.08-.93 9.95-9.7 2.74-12.8-46.71-20.1-78.5-59.77-78.5-105.45z" fill="#fff" stroke="#140E3C" stroke-width="3" stroke-miterlimit="10" stroke-linecap="round" stroke-linejoin="round"/></g><defs><clipPath id="clip0"><path fill="#fff" d="M0 0h21000v3000H0z"/></clipPath></defs></svg>