<svg width="802" height="802" fill="none" xmlns="http://www.w3.org/2000/svg"><path fill="#E5E5E5" d="M0 0h802v802H0z"/><path fill="#1E193B" d="M0 0h802v802H0z"/><path d="M1 1v800h800V1H1zm758.424 758.424H42.576V42.576H759.42v716.848h.004z" fill="#DE9C26" stroke="#140E3C" stroke-width="1.235" stroke-miterlimit="10" stroke-linecap="round" stroke-linejoin="round"/><g stroke="#140E3C" stroke-width="1.235" stroke-miterlimit="10" stroke-linecap="round" stroke-linejoin="round"><g fill="#54BE90"><path d="M735.685 737.376H72.061a4.097 4.097 0 01-4.098-4.098 4.097 4.097 0 014.098-4.098h663.624a4.097 4.097 0 110 8.196z"/><path d="M735.685 729.185H72.061a4.097 4.097 0 01-4.098-4.098 4.097 4.097 0 014.098-4.098h663.624a4.097 4.097 0 110 8.196z"/><path d="M735.685 720.993H72.061a4.097 4.097 0 110-8.195h663.624a4.096 4.096 0 014.098 4.097 4.102 4.102 0 01-4.098 4.098z"/><path d="M735.685 712.802H72.061a4.097 4.097 0 110-8.195h663.624a4.096 4.096 0 014.098 4.097 4.102 4.102 0 01-4.098 4.098z"/><path d="M735.685 704.611H72.061a4.097 4.097 0 01-4.098-4.098 4.097 4.097 0 014.098-4.098h663.624a4.097 4.097 0 110 8.196z"/><path d="M735.685 696.419H72.061a4.097 4.097 0 110-8.195h663.624a4.097 4.097 0 110 8.195z"/><path d="M735.685 688.228H72.061a4.097 4.097 0 110-8.195h663.624a4.097 4.097 0 110 8.195z"/><path d="M735.685 680.037H72.061a4.097 4.097 0 110-8.195h663.624a4.097 4.097 0 110 8.195z"/><path d="M735.685 671.846H72.061a4.097 4.097 0 01-4.098-4.098 4.097 4.097 0 014.098-4.098h663.624a4.097 4.097 0 110 8.196z"/><path d="M735.685 663.654H72.061a4.097 4.097 0 110-8.195h663.624a4.097 4.097 0 110 8.195z"/><path d="M735.685 655.463H72.061a4.097 4.097 0 110-8.195h663.624a4.097 4.097 0 110 8.195z"/><path d="M735.685 647.272H72.061a4.097 4.097 0 110-8.195h663.624a4.096 4.096 0 014.098 4.097 4.102 4.102 0 01-4.098 4.098z"/><path d="M735.685 639.077H72.061a4.097 4.097 0 01-4.098-4.098 4.097 4.097 0 014.098-4.098h663.624a4.097 4.097 0 110 8.196z"/><path d="M735.685 630.886H72.061a4.097 4.097 0 01-4.098-4.098 4.097 4.097 0 014.098-4.098h663.624a4.097 4.097 0 110 8.196z"/><path d="M735.685 622.694H72.061a4.097 4.097 0 110-8.195h663.624a4.097 4.097 0 110 8.195z"/><path d="M711.685 614.503H96.061v122.873h615.624V614.503z"/></g><path opacity=".1" d="M403.871 712.802c121.146 0 219.354-16.504 219.354-36.863 0-20.359-98.208-36.862-219.354-36.862-121.146 0-219.355 16.503-219.355 36.862s98.209 36.863 219.355 36.863z" fill="#140E3C"/></g><g opacity=".8" stroke="#140E3C" stroke-width="1.235" stroke-miterlimit="10" stroke-linecap="round" stroke-linejoin="round"><path opacity=".8" d="M759.42 84.362H42.576v41.787H759.42V84.362zm0 41.787H42.576v41.787H759.42v-41.787zm.001-83.573H42.577v41.786H759.42V42.576z" fill="#DE9C26"/><path opacity=".8" d="M759.42 167.931H42.576v41.787H759.42v-41.787z" fill="#DE9C26"/><path opacity=".8" d="M759.42 209.718H42.576v41.787H759.42v-41.787zm0 41.787H42.576v41.786H759.42v-41.786z" fill="#DE9C26"/><path opacity=".8" d="M759.42 293.287H42.576v41.787H759.42v-41.787zm0 41.787H42.576v41.786H759.42v-41.786zm0 41.786H42.576v41.787H759.42V376.86z" fill="#DE9C26"/><path opacity=".8" d="M759.42 418.643H42.576v41.787H759.42v-41.787z" fill="#DE9C26"/><path opacity=".8" d="M759.42 460.429H42.576v41.787H759.42v-41.787zm0 41.787H42.576v41.787H759.42v-41.787z" fill="#DE9C26"/><path opacity=".8" d="M759.42 543.999H42.576V561.6H759.42v-17.601z" fill="#DE9C26"/><path opacity=".1" d="M759.42 543.999H42.576V561.6H759.42v-17.601z" fill="#140E3C"/><path opacity=".8" d="M83.62 548.577a4.577 4.577 0 00-4.578 4.578v8.444h9.161v-8.444a4.583 4.583 0 00-4.582-4.578z" fill="#140E3C"/><path opacity=".1" d="M83.62 545.638a7.383 7.383 0 00-7.382 7.382v8.584h14.76v-8.584a7.376 7.376 0 00-7.378-7.382z" fill="#140E3C"/></g><g opacity=".4" fill="#140E3C"><path opacity=".4" d="M759.42 84.362H42.576v41.787H759.42V84.362zm0 41.787H42.576v41.787H759.42v-41.787zm.001-83.573H42.577v41.786H759.42V42.576z"/><path opacity=".4" d="M759.42 167.931H42.576v41.787H759.42v-41.787z"/><path opacity=".4" d="M759.42 209.718H42.576v41.787H759.42v-41.787zm0 41.787H42.576v41.786H759.42v-41.786z"/><path opacity=".4" d="M759.42 293.287H42.576v41.787H759.42v-41.787zm0 41.787H42.576v41.786H759.42v-41.786zm0 41.786H42.576v41.787H759.42V376.86z"/><path opacity=".4" d="M759.42 418.643H42.576v41.787H759.42v-41.787z"/><path opacity=".4" d="M759.42 460.429H42.576v41.787H759.42v-41.787zm0 41.787H42.576v41.787H759.42v-41.787z"/><path opacity=".4" d="M759.42 543.999H42.576V561.6H759.42v-17.601z"/><path opacity=".1" d="M759.42 543.999H42.576V561.6H759.42v-17.601z"/><path opacity=".4" d="M83.62 548.577a4.577 4.577 0 00-4.578 4.578v8.444h9.161v-8.444a4.583 4.583 0 00-4.582-4.578z"/><path opacity=".1" d="M83.62 545.638a7.383 7.383 0 00-7.382 7.382v8.584h14.76v-8.584a7.376 7.376 0 00-7.378-7.382z"/></g><g stroke="#140E3C" stroke-width="1.235" stroke-miterlimit="10" stroke-linecap="round" stroke-linejoin="round"><path d="M365.496 549.694H184.947V667.28h180.549V549.694z" fill="#DE9C26"/><path d="M386.756 667.28h-42.52v-96.322c0-11.741 9.519-21.26 21.26-21.26 11.741 0 21.26 9.519 21.26 21.26v96.322z" fill="#DE9C26"/><path d="M375.774 667.28h-18.259v-95.938a9.132 9.132 0 0118.263 0v95.938h-.004z" fill="#DE9C26"/><path opacity=".1" d="M375.774 667.28h-18.259v-95.938a9.132 9.132 0 0118.263 0v95.938h-.004z" fill="#140E3C"/></g><path d="M230.288 634.65v-33.077h103.657c5.683 0 10.291 4.608 10.291 10.291v22.786" fill="#DE9C26"/><path d="M230.288 634.65v-33.077h103.657c5.683 0 10.291 4.608 10.291 10.291v22.786" stroke="#140E3C" stroke-width="1.235" stroke-miterlimit="10" stroke-linecap="round" stroke-linejoin="round"/><path d="M278.63 424.389H129.248V667.28h119.108V549.382l51.53.312V445.649c.004-11.741-9.515-21.26-21.256-21.26z" fill="#DE9C26" stroke="#140E3C" stroke-width="1.235" stroke-miterlimit="10" stroke-linecap="round" stroke-linejoin="round"/><path d="M347.93 533.122h-20.004a5.614 5.614 0 00-5.616 5.616 5.614 5.614 0 005.616 5.615h20.004a5.614 5.614 0 005.615-5.615 5.611 5.611 0 00-5.615-5.616z" fill="#54BE90"/><path d="M347.93 533.122h-20.004a5.614 5.614 0 00-5.616 5.616 5.614 5.614 0 005.616 5.615h20.004a5.614 5.614 0 005.615-5.615 5.611 5.611 0 00-5.615-5.616z" stroke="#140E3C" stroke-width="1.235" stroke-miterlimit="10" stroke-linecap="round" stroke-linejoin="round"/><path opacity=".4" d="M347.93 533.122h-20.004a5.614 5.614 0 00-5.616 5.616 5.614 5.614 0 005.616 5.615h20.004a5.614 5.614 0 005.615-5.615 5.611 5.611 0 00-5.615-5.616z" fill="#140E3C"/><g stroke="#140E3C" stroke-width="1.235" stroke-miterlimit="10" stroke-linecap="round" stroke-linejoin="round"><path d="M255.511 601.569c42.729 0 77.368-34.639 77.368-77.368 0-42.728-34.639-77.367-77.368-77.367-42.729 0-77.367 34.639-77.367 77.367 0 42.729 34.638 77.368 77.367 77.368z" fill="#54BE90"/><path d="M280.321 536.566h36.125"/></g><path d="M349.599 666.471a8.539 8.539 0 00-8.537-8.537h-6.783v-62.705a5.33 5.33 0 00-5.333-5.333h-49.847v11.673h43.507v65.711h26.989v-.809h.004z" fill="#54BE90"/><path d="M349.599 666.471a8.539 8.539 0 00-8.537-8.537h-6.783v-62.705a5.33 5.33 0 00-5.333-5.333h-49.847v11.673h43.507v65.711h26.989v-.809h.004z" stroke="#140E3C" stroke-width="1.235" stroke-miterlimit="10" stroke-linecap="round" stroke-linejoin="round"/><path d="M331.918 666.471a8.539 8.539 0 00-8.537-8.537h-9.418v-62.705a5.33 5.33 0 00-5.333-5.333h-61.521v11.673h55.18v65.711h29.629v-.809z" fill="#54BE90"/><path d="M331.918 666.471a8.539 8.539 0 00-8.537-8.537h-9.418v-62.705a5.33 5.33 0 00-5.333-5.333h-61.521v11.673h55.18v65.711h29.629v-.809z" stroke="#140E3C" stroke-width="1.235" stroke-miterlimit="10" stroke-linecap="round" stroke-linejoin="round"/><g stroke-width="1.235" stroke-miterlimit="10" stroke-linecap="round" stroke-linejoin="round"><g fill="#DE9C27" stroke="#13123D"><path d="M322.605 643.693v23.587h34.587a7.724 7.724 0 00-5.831-7.483l-14.194-3.596a3.737 3.737 0 01-2.829-3.625v-8.883h-11.733z"/><path d="M334.338 643.693h-11.733v3.246h11.733v-3.246z"/></g><g fill="#DE9C27" stroke="#13123D"><path d="M322.605 643.693v23.587h34.587a7.724 7.724 0 00-5.831-7.483l-14.194-3.596a3.737 3.737 0 01-2.829-3.625v-8.883h-11.733z"/><path d="M334.338 643.693h-11.733v3.246h11.733v-3.246z"/></g><g opacity=".1" fill="#140E3C" stroke="#140E3C"><path opacity=".1" d="M322.605 643.693v23.587h34.587a7.724 7.724 0 00-5.831-7.483l-14.194-3.596a3.737 3.737 0 01-2.829-3.625v-8.883h-11.733z"/><path opacity=".1" d="M334.338 643.693h-11.733v3.246h11.733v-3.246z"/></g></g><g stroke-width="1.235" stroke-miterlimit="10" stroke-linecap="round" stroke-linejoin="round"><g fill="#DE9C27" stroke="#13123D"><path d="M302.289 643.693v23.587h34.586a7.724 7.724 0 00-5.83-7.483l-14.195-3.596a3.737 3.737 0 01-2.828-3.625v-8.883h-11.733z"/><path d="M314.022 643.693h-11.733v3.246h11.733v-3.246z"/></g><g fill="#DE9C27" stroke="#13123D"><path d="M302.289 643.693v23.587h34.586a7.724 7.724 0 00-5.83-7.483l-14.195-3.596a3.737 3.737 0 01-2.828-3.625v-8.883h-11.733z"/><path d="M314.022 643.693h-11.733v3.246h11.733v-3.246z"/></g><g opacity=".1" fill="#140E3C" stroke="#140E3C"><path opacity=".1" d="M302.289 643.693v23.587h34.586a7.724 7.724 0 00-5.83-7.483l-14.195-3.596a3.737 3.737 0 01-2.828-3.625v-8.883h-11.733z"/><path opacity=".1" d="M314.022 643.693h-11.733v3.246h11.733v-3.246z"/></g></g><g stroke="#140E3C" stroke-width="1.235" stroke-miterlimit="10" stroke-linecap="round" stroke-linejoin="round"><path d="M304.718 509.459a7.027 7.027 0 10.001-14.055 7.027 7.027 0 00-.001 14.055z" fill="#fff"/><path d="M304.718 505.197a2.766 2.766 0 100-5.532 2.766 2.766 0 000 5.532z" fill="#140E3C"/><path d="M313.04 526.903a7.027 7.027 0 100-14.055 7.028 7.028 0 000 14.055z" fill="#fff"/><path d="M313.041 522.641a2.765 2.765 0 100-5.53 2.765 2.765 0 000 5.53z" fill="#140E3C"/><path d="M296.4 526.903a7.027 7.027 0 100-14.055 7.028 7.028 0 000 14.055z" fill="#fff"/><path d="M296.401 522.641a2.765 2.765 0 10.001-5.53 2.765 2.765 0 00-.001 5.53z" fill="#140E3C"/><path d="M279.512 526.903a7.027 7.027 0 100-14.055 7.028 7.028 0 000 14.055z" fill="#fff"/><path d="M279.512 522.641a2.765 2.765 0 10.001-5.53 2.765 2.765 0 00-.001 5.53z" fill="#140E3C"/><path d="M287.842 509.459a7.027 7.027 0 10.001-14.055 7.027 7.027 0 00-.001 14.055z" fill="#fff"/><path d="M287.842 505.197a2.766 2.766 0 10.001-5.531 2.766 2.766 0 00-.001 5.531z" fill="#140E3C"/></g><path d="M210.731 501.769c-10.548 0-19.101 8.554-19.101 19.102s8.553 19.102 19.101 19.102m-5.396-14.764a4.338 4.338 0 100-8.676" stroke="#13123D" stroke-width="1.235" stroke-miterlimit="10" stroke-linecap="round" stroke-linejoin="round"/><path d="M368.459 509.071a4.41 4.41 0 00-6.53-3.866 4.915 4.915 0 00-4.085-7.651 4.91 4.91 0 00-4.894 4.532c-.182-.03-.359-.064-.54-.081a4.44 4.44 0 00-.645-.691c.084-.341.135-.7.135-1.067a4.408 4.408 0 00-8.807-.299 4.366 4.366 0 00-1.315-.198 4.408 4.408 0 00-3.44 7.167 4.41 4.41 0 002.209 8.469 4.32 4.32 0 001.678-.586 4.34 4.34 0 001.231.502 4.41 4.41 0 004.367 5c1.328 0 2.513-.59 3.322-1.518.026 0 .055.004.08.004a4.396 4.396 0 006.923-.362 4.41 4.41 0 006.914-3.63c0-.485-.081-.953-.228-1.391a4.406 4.406 0 003.625-4.334z" fill="#fff"/><path d="M368.459 509.071a4.41 4.41 0 00-6.53-3.866 4.915 4.915 0 00-4.085-7.651 4.91 4.91 0 00-4.894 4.532c-.182-.03-.359-.064-.54-.081a4.44 4.44 0 00-.645-.691c.084-.341.135-.7.135-1.067a4.408 4.408 0 00-8.807-.299 4.366 4.366 0 00-1.315-.198 4.408 4.408 0 00-3.44 7.167 4.41 4.41 0 002.209 8.469 4.32 4.32 0 001.678-.586 4.34 4.34 0 001.231.502 4.41 4.41 0 004.367 5c1.328 0 2.513-.59 3.322-1.518.026 0 .055.004.08.004a4.396 4.396 0 006.923-.362 4.41 4.41 0 006.914-3.63c0-.485-.081-.953-.228-1.391a4.406 4.406 0 003.625-4.334z" stroke="#140E3C" stroke-width="1.235" stroke-miterlimit="10" stroke-linecap="round" stroke-linejoin="round"/><path d="M367.608 511.663h-32.065l4.924 38.031h22.217l4.924-38.031z" fill="#DE9C26" stroke="#140E3C" stroke-width="1.235" stroke-miterlimit="10" stroke-linecap="round" stroke-linejoin="round"/><path opacity=".1" d="M367.608 511.663h-32.065l4.924 38.031h22.217l4.924-38.031z" fill="#140E3C" stroke="#140E3C" stroke-width="1.235" stroke-miterlimit="10" stroke-linecap="round" stroke-linejoin="round"/><path d="M351.576 511.663h-16.033l4.924 38.031h11.109v-38.031z" fill="#DE9C26" stroke="#140E3C" stroke-width="1.235" stroke-miterlimit="10" stroke-linecap="round" stroke-linejoin="round"/><path d="M343.195 508.017a4.41 4.41 0 00-5.266-.923" fill="#fff"/><path d="M343.195 508.017a4.41 4.41 0 00-5.266-.923" stroke="#140E3C" stroke-width="1.235" stroke-miterlimit="10" stroke-linecap="round" stroke-linejoin="round"/><path d="M356.037 506.6a4.592 4.592 0 00-9.182 0" fill="#fff"/><path d="M356.037 506.6a4.592 4.592 0 00-9.182 0" stroke="#140E3C" stroke-width="1.235" stroke-miterlimit="10" stroke-linecap="round" stroke-linejoin="round"/><path d="M364.046 504.661a4.408 4.408 0 00-4.41 4.41l4.41-4.41z" fill="#54BE90"/><path d="M364.046 504.661a4.408 4.408 0 00-4.41 4.41" stroke="#140E3C" stroke-width="1.235" stroke-miterlimit="10" stroke-linecap="round" stroke-linejoin="round"/><path d="M364.046 504.661a4.408 4.408 0 00-4.41 4.41l4.41-4.41z" fill="#fff"/><path d="M364.046 504.661a4.408 4.408 0 00-4.41 4.41" stroke="#140E3C" stroke-width="1.235" stroke-miterlimit="10" stroke-linecap="round" stroke-linejoin="round"/><path d="M363.814 533.122h-3.49a5.614 5.614 0 00-5.616 5.616 5.614 5.614 0 005.616 5.615h3.49a5.614 5.614 0 005.616-5.615 5.617 5.617 0 00-5.616-5.616z" fill="#54BE90"/><path d="M363.814 533.122h-3.49a5.614 5.614 0 00-5.616 5.616 5.614 5.614 0 005.616 5.615h3.49a5.614 5.614 0 005.616-5.615 5.617 5.617 0 00-5.616-5.616z" stroke="#140E3C" stroke-width="1.235" stroke-miterlimit="10" stroke-linecap="round" stroke-linejoin="round"/><g stroke="#140E3C" stroke-width="1.235" stroke-miterlimit="10" stroke-linecap="round" stroke-linejoin="round"><path d="M150.513 549.694V445.649c0-11.741-9.52-21.26-21.26-21.26-11.741 0-21.261 9.519-21.261 21.26V667.28h159.466V549.694H150.513z" fill="#DE9C26"/><path d="M288.718 667.28h-42.52v-96.322c0-11.741 9.519-21.26 21.26-21.26 11.741 0 21.26 9.519 21.26 21.26v96.322z" fill="#DE9C26"/><path d="M277.855 667.28h-18.259v-95.938a9.132 9.132 0 0118.263 0v95.938h-.004z" fill="#DE9C26"/><path opacity=".1" d="M277.855 667.28h-18.259v-95.938a9.132 9.132 0 0118.263 0v95.938h-.004z" fill="#140E3C"/></g><g stroke="#140E3C" stroke-width="1.235" stroke-miterlimit="10" stroke-linecap="round" stroke-linejoin="round"><path d="M411.244 115.353c8.619 0 15.607-6.988 15.607-15.607 0-8.62-6.988-15.607-15.607-15.607-8.62 0-15.607 6.988-15.607 15.607s6.987 15.607 15.607 15.607z" fill="#fff"/><path d="M369.883 101.146c0-22.846 18.52-41.365 41.365-41.365 22.846 0 41.365 18.52 41.365 41.365h-82.73z" fill="#54BE90"/><path d="M371.915 88.313a41.373 41.373 0 00-2.032 12.828h82.726c0-4.477-.716-8.79-2.032-12.828h-78.662zm42.984-35.548h-7.306a9.049 9.049 0 00-9.047 9.047h25.396c0-4.995-4.047-9.047-9.043-9.047z" fill="#54BE90"/><path d="M412.876 42.576h-3.263v10.19h3.263v-10.19z" fill="#140E3C"/></g><path opacity=".4" d="M759.425 759.424V42.576H42.577V187.96L485.18 380.436h169.617v163.563H485.181L42.577 759.424h716.848z" fill="#140E3C"/><path opacity=".33" d="M42.577 187.96L485.18 380.435v163.563L42.577 759.424V187.96z" fill="#54BE90"/><path d="M663.137 372.409H476.842V551.73h186.295V372.409z" fill="#DE9C26" stroke="#140E3C" stroke-width="1.235" stroke-miterlimit="10" stroke-linecap="round" stroke-linejoin="round"/><path d="M654.799 380.436H485.182v163.563h169.617V380.436z" fill="#140E3C" stroke="#140E3C" stroke-width="1.235" stroke-miterlimit="10" stroke-linecap="round" stroke-linejoin="round"/><path d="M504.41 473.844v-14.097h-3.799v-2.154h10.363v2.154h-3.799v14.097h-2.765zm9.81 0v-16.252h2.762v6.277h4.856v-6.277h2.762v16.252h-2.762v-7.82h-4.856v7.82h-2.762zm14.384 0v-16.252h8.917v2.154h-6.155v4.225h5.383v2.154h-5.383v5.565h6.155v2.154h-8.917zm30.068 0l-2.639-5.485-2.58 5.485h-2.968l4.144-8.411-3.756-7.841h3.085l2.437 5.16 2.357-5.16h2.926l-3.862 8.166 3.819 8.086h-2.963zm16.028 0v-16.252h9.161v2.154h-6.4v5.687h5.321v2.155h-5.321v6.256H574.7zm12.858 0v-2.154h3.048v-11.944h-3.048v-2.154h8.857v2.154h-3.048v11.944h3.048v2.154h-8.857zm12.858 0v-16.252h2.761v14.098h5.362v2.154h-8.123zm11.336 0v-16.252h8.917v2.154h-6.155v4.225h5.383v2.154h-5.383v5.565h6.155v2.154h-8.917zm18.018.139a8.336 8.336 0 01-2.622-.438 9.815 9.815 0 01-2.458-1.189l.569-2.175a8.809 8.809 0 002.336 1.231c.813.278 1.61.417 2.398.417.759 0 1.337-.207 1.737-.62.401-.413.599-.969.599-1.678 0-.649-.219-1.155-.662-1.513-.438-.358-1.244-.755-2.407-1.189-1.531-.54-2.665-1.159-3.402-1.847-.738-.691-1.109-1.644-1.109-2.862 0-1.408.438-2.538 1.319-3.381.882-.847 2.079-1.269 3.597-1.269.881 0 1.732.148 2.559.438.826.291 1.53.675 2.112 1.147l-.447 2.091a8.96 8.96 0 00-2.104-1.134c-.712-.261-1.4-.392-2.061-.392-.692 0-1.236.181-1.636.548-.401.363-.599.877-.599 1.539 0 .632.211 1.125.628 1.475.422.35 1.265.755 2.538 1.214 1.573.544 2.703 1.16 3.394 1.86.691.699 1.037 1.648 1.037 2.854 0 1.45-.464 2.622-1.391 3.524-.923.902-2.235 1.349-3.925 1.349z" fill="#fff"/><path d="M556.259 480.075c7.677 0 13.9-6.223 13.9-13.9 0-7.676-6.223-13.899-13.9-13.899-7.676 0-13.899 6.223-13.899 13.899 0 7.677 6.223 13.9 13.899 13.9z" stroke="#fff" stroke-width="1.235" stroke-miterlimit="10"/><g stroke="#140E3C" stroke-width="1.235" stroke-miterlimit="10" stroke-linecap="round" stroke-linejoin="round"><path d="M663.14 667.281h36.315V372.41H663.14v294.871z" fill="#DE9C26"/><path d="M699.452 551.731h-36.315V667.28h36.315V551.731zm-36.315 0H476.842V667.28h186.295V551.731z" fill="#DE9C26"/><path opacity=".2" d="M663.137 551.731H476.842V667.28h186.295V551.731z" fill="#140E3C"/><path d="M521.496 551.731h-36.315V667.28h36.315V551.731z" fill="#DE9C26"/><path d="M663.137 606.004H476.842v6.998h186.295v-6.998zm0 54.274H476.842v6.998h186.295v-6.998z" fill="#DE9C26"/><path d="M485.181 551.731h-8.339V667.28h8.339V551.731zm177.956 0h-8.339V667.28h8.339V551.731z" fill="#DE9C26"/></g><g stroke="#140E3C" stroke-width="1.235" stroke-miterlimit="10" stroke-linecap="round" stroke-linejoin="round"><path d="M521.496 551.73h-29.59v54.274h29.59V551.73z" fill="#54BE90"/><path d="M525.774 551.73h-29.59v54.274h29.59V551.73z" fill="#54BE90"/><path d="M525.774 551.73h-29.59v54.274h29.59V551.73z" fill="#54BE90"/><path d="M530.053 551.73h-29.59v54.274h29.59V551.73z" fill="#54BE90"/><path d="M530.053 551.73h-29.59v54.274h29.59V551.73z" fill="#54BE90"/><path d="M534.332 551.73h-29.591v54.274h29.591V551.73z" fill="#54BE90"/><path d="M534.332 551.73h-29.591v54.274h29.591V551.73z" fill="#54BE90"/><path d="M538.611 551.73h-29.59v54.274h29.59V551.73z" fill="#54BE90"/><path d="M538.611 551.73h-29.59v54.274h29.59V551.73z" fill="#54BE90"/><path d="M542.89 551.73h-29.591v54.274h29.591V551.73z" fill="#54BE90"/><path d="M542.89 551.73h-29.591v54.274h29.591V551.73z" fill="#54BE90"/><path d="M547.17 551.73h-29.591v54.274h29.591V551.73z" fill="#54BE90"/><path opacity=".1" d="M496.183 591.945h-4.279v6.336h4.279v-6.336zm4.28 0h-4.279v6.336h4.279v-6.336zm4.279 0h-4.279v6.336h4.279v-6.336z" fill="#140E3C"/><path opacity=".1" d="M509.02 591.945h-4.279v6.336h4.279v-6.336zm4.28 0h-4.279v6.336h4.279v-6.336z" fill="#140E3C"/><path opacity=".1" d="M517.578 591.945h-4.279v6.336h4.279v-6.336zm25.936-36.29H521.95v46.382h21.564v-46.382z" fill="#140E3C"/></g><g stroke="#140E3C" stroke-width="1.235" stroke-miterlimit="10" stroke-linecap="round" stroke-linejoin="round"><path d="M615.123 563.619h-11.682v11.682h11.682v-11.682z" fill="#140E3C"/><path d="M643.596 584.811c-3.975 0-7.558-2.533-8.743-6.328-2.69-8.612-10.733-14.864-20.231-14.864-9.499 0-17.542 6.252-20.232 14.864-1.185 3.795-4.768 6.328-8.743 6.328h-5.076v21.193h68.101v-18.069a3.125 3.125 0 00-3.124-3.124h-1.952z" fill="#140E3C"/><path d="M632.421 584.811c-3.976 0-7.559-2.533-8.744-6.327-2.69-8.613-10.733-14.865-20.231-14.865-9.498 0-17.542 6.252-20.232 14.865-1.184 3.794-4.768 6.327-8.743 6.327h-1.952a3.126 3.126 0 00-3.124 3.124v18.069h68.101v-18.069a3.125 3.125 0 00-3.123-3.124h-1.952z" fill="#54BE90"/><path d="M603.441 598.546c7.586 0 13.735-6.149 13.735-13.735 0-7.585-6.149-13.734-13.735-13.734-7.585 0-13.735 6.149-13.735 13.734 0 7.586 6.15 13.735 13.735 13.735z" fill="#fff"/><path d="M603.441 586.907a2.095 2.095 0 100-4.19 2.095 2.095 0 000 4.19z" fill="#fff"/><path d="M603.442 582.716v-7.411m2.099 9.507h4.599"/></g><g stroke="#140E3C" stroke-width="1.235" stroke-miterlimit="10" stroke-linecap="round" stroke-linejoin="round"><path d="M610.296 638.39h-66.651v21.888h66.651V638.39zm.003 21.891h22.352v-21.889h-22.352v21.889zm0-21.89h22.352v-6.771h-22.352v6.771zm-.003-6.772h-66.651v6.771h66.651v-6.771z" fill="#54BE90"/><path opacity=".2" d="M610.296 631.619h-66.651v6.771h66.651v-6.771zm22.353 0h-22.352v6.771h22.352v-6.771z" fill="#140E3C"/><path d="M578.897 648.09a1.366 1.366 0 100-2.732 1.366 1.366 0 000 2.732z" fill="#140E3C"/></g><path d="M550.378 577.687l9.616-9.616h-25.64l9.616 9.616c-6.379 1.454-11.134 7.162-11.134 13.979 0 7.922 6.421 14.338 14.338 14.338 7.921 0 14.338-6.42 14.338-14.338 0-6.817-4.76-12.525-11.134-13.979z" fill="#DE9C26" stroke="#140E3C" stroke-width="1.235" stroke-miterlimit="10" stroke-linecap="round" stroke-linejoin="round"/><g stroke="#140E3C" stroke-width="1.235" stroke-miterlimit="10" stroke-linecap="round" stroke-linejoin="round"><path d="M468.984 230.312h-6.328v80.542h6.328v-80.542zm238.667 0h-6.328v80.542h6.328v-80.542z" fill="#140E3C"/><path d="M730.412 310.854H449.01v9.359h281.402v-9.359zm0-89.901H449.01v9.359h281.402v-9.359z" fill="#DE9C26"/><path d="M730.408 220.953h-10.211v9.359h10.211v-9.359zm0 89.901h-10.211v9.359h10.211v-9.359z" fill="#DE9C26"/><path opacity=".2" d="M730.408 220.953h-10.211v9.359h10.211v-9.359zm0 89.901h-10.211v9.359h10.211v-9.359z" fill="#140E3C"/></g><g stroke="#140E3C" stroke-width="1.235" stroke-miterlimit="10" stroke-linecap="round" stroke-linejoin="round"><path d="M585.255 310.69h26.824l-26.824-45.357v45.357zm0-45.357l-26.821 45.357h26.821v-45.357z" fill="#DE9C26"/><path opacity=".2" d="M585.255 265.333l-26.821 45.357h26.821v-45.357z" fill="#140E3C"/></g><path d="M629.124 169.921h-16.855a2.109 2.109 0 01-2.108-2.107v-3.002h21.071v3.002a2.112 2.112 0 01-2.108 2.107z" fill="#54BE90" stroke="#140E3C" stroke-width="1.235" stroke-miterlimit="10" stroke-linecap="round" stroke-linejoin="round"/><path d="M672.639 220.688c-.278-2.361-1.231-4.612-2.85-6.455-2.42-2.061-4.034-5.109-4.034-8.52 0-3.048.986-6.454 4.034-6.454s4.035 3.406 4.035 6.454c0 3.407-1.615 6.547-4.035 8.52-2.061 1.345-4.574 2.176-6.994 2.176-2.39.008-4.78-.688-6.808-2.083-.089-.088-.182-.088-.182-.088-2.419-2.062-4.034-5.11-4.034-8.521 0-3.048.986-6.454 4.034-6.454s4.035 3.406 4.035 6.454a11.1 11.1 0 01-4.035 8.521s-.088.088-.181.088l.173-.088s-.089.088-.181.088c-4.035 2.778-9.507 2.778-13.541 0-.089-.088-.182-.088-.182-.088-2.419-2.062-4.034-5.11-4.034-8.521 0-3.048.986-6.454 4.034-6.454s4.035 3.406 4.035 6.454a11.1 11.1 0 01-4.035 8.521s-.088.088-.181.088c-2.061 1.345-4.393 2.062-6.813 2.062M543 205.755s-5.093 0-7.761-2.499c-1.64-1.923-4.06-3.204-6.766-3.204-2.42 0-5.127.784-5.127 3.204 0 2.419 2.707 3.203 5.127 3.203a8.812 8.812 0 006.766-3.203c1.066-1.64 1.728-3.634 1.728-5.557a9.516 9.516 0 00-1.656-5.409c-.072-.071-.072-.143-.072-.143-1.64-1.922-4.06-3.204-6.766-3.204-2.42 0-5.127.784-5.127 3.204s2.707 3.204 5.127 3.204a8.813 8.813 0 006.766-3.204s.072-.072.072-.143c2.209-3.204 2.209-7.551 0-10.755-.072-.071-.072-.143-.072-.143-1.64-1.922-4.06-3.204-6.766-3.204-2.42 0-5.127.784-5.127 3.204s2.707 3.204 5.127 3.204c2.706 0 5.198-1.21 6.766-3.204 0 0 .072-.072.072-.143a9.479 9.479 0 001.656-5.376v-.059a9.51 9.51 0 00-1.656-5.408c-.072-.072-.072-.144-.072-.144-1.64-1.922-4.06-3.204-6.766-3.204-2.42 0-5.127.784-5.127 3.204s2.707 3.204 5.127 3.204a8.81 8.81 0 006.766-3.204s.072-.071.072-.143c2.209-3.204 2.137-7.69-.072-10.898-1.64-1.922-4.06-3.204-6.766-3.204-2.42 0-5.127.784-5.127 3.204s2.707 3.204 5.127 3.204c2.706 0 5.198-1.21 6.766-3.204h.008c4.975-3.275 8.259-3.465 8.259-3.465" stroke="#13123D" stroke-width="1.235" stroke-miterlimit="10" stroke-linecap="round" stroke-linejoin="round"/><path d="M615.776 149.357H555.82c-8.533 0-15.451 6.918-15.451 15.451h90.862c-.004-8.533-6.922-15.451-15.455-15.451z" fill="#54BE90" stroke="#140E3C" stroke-width="1.235" stroke-miterlimit="10" stroke-linecap="round" stroke-linejoin="round"/><path d="M605.672 171.591V161.11a3.63 3.63 0 00-7.26 0v8.027a39.21 39.21 0 00-8.815-.999h-7.593a39.11 39.11 0 00-8.035.831v-7.854a3.63 3.63 0 10-7.26 0v10.139c-13.954 5.948-23.734 19.788-23.734 35.918v13.655h85.651v-13.655c0-15.83-9.418-29.456-22.954-35.581z" fill="#54BE90"/><path d="M605.672 171.591V161.11a3.63 3.63 0 00-7.26 0v8.027a39.21 39.21 0 00-8.815-.999h-7.593a39.11 39.11 0 00-8.035.831v-7.854a3.63 3.63 0 10-7.26 0v10.139c-13.954 5.948-23.734 19.788-23.734 35.918v13.655h85.651v-13.655c0-15.83-9.418-29.456-22.954-35.581z" stroke="#140E3C" stroke-width="1.235" stroke-miterlimit="10" stroke-linecap="round" stroke-linejoin="round"/><path d="M585.799 205.696c7.769 0 14.068-6.298 14.068-14.068 0-7.769-6.299-14.068-14.068-14.068-7.77 0-14.068 6.299-14.068 14.068 0 7.77 6.298 14.068 14.068 14.068z" fill="#54BE90" stroke="#140E3C" stroke-width="1.235" stroke-miterlimit="10" stroke-linecap="round" stroke-linejoin="round"/><path opacity=".1" d="M585.799 205.696c7.769 0 14.068-6.298 14.068-14.068 0-7.769-6.299-14.068-14.068-14.068-7.77 0-14.068 6.299-14.068 14.068 0 7.77 6.298 14.068 14.068 14.068z" fill="#140E3C" stroke="#140E3C" stroke-width="1.235" stroke-miterlimit="10" stroke-linecap="round" stroke-linejoin="round"/><path opacity=".1" d="M585.799 205.696c7.769 0 14.068-6.298 14.068-14.068 0-7.769-6.299-14.068-14.068-14.068-7.77 0-14.068 6.299-14.068 14.068 0 7.77 6.298 14.068 14.068 14.068z" fill="#140E3C" stroke="#140E3C" stroke-width="1.235" stroke-miterlimit="10" stroke-linecap="round" stroke-linejoin="round"/><path d="M630.502 220.823h-89.408a4.408 4.408 0 01-4.41-4.41 4.408 4.408 0 014.41-4.41h89.408a4.411 4.411 0 010 8.82z" fill="#54BE90" stroke="#140E3C" stroke-width="1.235" stroke-miterlimit="10" stroke-linecap="round" stroke-linejoin="round"/><path opacity=".1" d="M630.502 220.823h-89.408a4.408 4.408 0 01-4.41-4.41 4.408 4.408 0 014.41-4.41h89.408a4.411 4.411 0 010 8.82z" fill="#140E3C" stroke="#140E3C" stroke-width="1.235" stroke-miterlimit="10" stroke-linecap="round" stroke-linejoin="round"/><path d="M559.332 169.921h-16.855a2.108 2.108 0 01-2.108-2.107v-3.002h21.07v3.002a2.11 2.11 0 01-2.107 2.107zm26.467 27.685a5.978 5.978 0 100-11.956 5.978 5.978 0 000 11.956z" fill="#54BE90" stroke="#140E3C" stroke-width="1.235" stroke-miterlimit="10" stroke-linecap="round" stroke-linejoin="round"/><g stroke="#140E3C" stroke-width="1.235" stroke-miterlimit="10" stroke-linecap="round" stroke-linejoin="round"><path d="M483.356 131.878v4.305l-4.481-4.482a2.93 2.93 0 00-4.14 0 2.936 2.936 0 000 4.144l7.761 7.762h.004c.565.565.852 1.307.856 2.049v7.242l-4.481-4.481a2.928 2.928 0 00-4.14 4.14l7.761 7.761h.004c.565.565.852 1.307.856 2.049v29.245h5.851v-29.241a2.919 2.919 0 01.856-2.049h.004l7.762-7.761a2.93 2.93 0 000-4.14 2.93 2.93 0 00-4.14 0l-4.482 4.481v-7.242a2.919 2.919 0 01.856-2.049h.004l7.762-7.761a2.922 2.922 0 00.855-2.074 2.92 2.92 0 00-.889-2.104c-1.155-1.122-3.014-1.062-4.153.076l-4.435 4.435v-4.305a2.924 2.924 0 00-2.938-2.925 2.924 2.924 0 00-2.913 2.925z" fill="#54BE90"/><g fill="#DE9C26"><path d="M507.783 173.071h-43.001v36.9c0 6.067 4.916 10.982 10.982 10.982h21.041c6.066 0 10.982-4.915 10.982-10.982v-36.9h-.004z"/><path d="M510.691 173.071h-48.818v8.84h48.818v-8.84z"/></g></g><g stroke="#140E3C" stroke-width=".823" stroke-miterlimit="10" stroke-linecap="round" stroke-linejoin="round"><path d="M505.189 310.686c16.382 0 29.662-13.28 29.662-29.662 0-16.382-13.28-29.662-29.662-29.662-16.382 0-29.662 13.28-29.662 29.662 0 16.382 13.28 29.662 29.662 29.662z" fill="#140E3C"/><path d="M541.179 300.421c-2.032-2.408-4.903-5.283-8.423-8.453a29.715 29.715 0 01-1.147 2.534c2.909 2.651 5.329 5.075 7.129 7.141 3.296 3.794 3.469 5.19 3.461 5.476-.367.14-2.867.679-13.166-4.553a146.81 146.81 0 01-2.272-1.184 182.673 182.673 0 01-4.869-2.698c-6.206-3.575-13.103-8.01-20.051-12.909-6.947-4.899-13.439-9.907-18.89-14.553a159.427 159.427 0 01-6.059-5.421c-8.385-7.947-8.718-10.481-8.709-10.873.265-.101 1.64-.409 6.319 1.421 2.551.999 5.649 2.466 9.123 4.317a29.595 29.595 0 012.003-1.931c-4.17-2.251-7.846-3.988-10.793-5.092-4.928-1.847-7.651-1.927-8.832-.249-1.231 1.745.207 4.203 1.391 5.902 1.48 2.12 3.845 4.747 7.028 7.807 1.003.966 2.078 1.961 3.204 2.977a174.755 174.755 0 004.342 3.781c5.35 4.515 11.627 9.334 18.352 14.077 6.724 4.742 13.372 9.034 19.422 12.558a172.789 172.789 0 005.02 2.817c1.337.721 2.635 1.399 3.879 2.019 3.954 1.969 7.222 3.314 9.717 3.997 1.999.548 4.798 1.07 6.029-.675 1.176-1.674.19-4.212-3.208-8.233z" fill="#54BE90"/></g><g stroke="#140E3C" stroke-width="1.235" stroke-miterlimit="10" stroke-linecap="round" stroke-linejoin="round"><path d="M661.602 248.482h-36.825v62.373h36.825v-62.373z" fill="#54BE90"/><path d="M666.926 248.482h-36.824v62.372h36.824v-62.372z" fill="#54BE90"/><path d="M666.926 248.482h-36.824v62.372h36.824v-62.372z" fill="#54BE90"/><path d="M672.25 248.482h-36.824v62.372h36.824v-62.372z" fill="#54BE90"/><path d="M672.25 248.482h-36.824v62.372h36.824v-62.372z" fill="#54BE90"/><path d="M677.575 248.482h-36.824v62.372h36.824v-62.372z" fill="#54BE90"/><path d="M677.575 248.482h-36.824v62.372h36.824v-62.372z" fill="#54BE90"/><path d="M682.9 248.482h-36.825v62.372H682.9v-62.372z" fill="#54BE90"/><path d="M682.9 248.482h-36.825v62.372H682.9v-62.372z" fill="#54BE90"/><path opacity=".1" d="M630.101 291.416h-5.324v8.756h5.324v-8.756zm5.325 0h-5.324v8.756h5.324v-8.756zm5.324 0h-5.324v8.756h5.324v-8.756zm5.325 0h-5.324v8.756h5.324v-8.756z" fill="#140E3C"/><path opacity=".1" d="M651.4 291.416h-5.325v8.756h5.325v-8.756z" fill="#140E3C"/><path d="M688.226 248.482h-36.825v62.372h36.825v-62.372z" fill="#54BE90"/><path opacity=".1" d="M656.724 291.416H651.4v8.756h5.324v-8.756z" fill="#140E3C"/><path d="M693.549 248.482h-36.825v62.372h36.825v-62.372z" fill="#54BE90"/><path opacity=".1" d="M688.996 253.904h-26.833v51.461h26.833v-51.461z" fill="#140E3C"/></g><path d="M683.885 197.977v20.561c0 1.053.81 1.964 1.864 2.015a1.958 1.958 0 002.053-1.956v-20.616h-3.917v-.004z" fill="#140E3C" stroke="#140E3C" stroke-width="1.235" stroke-miterlimit="10" stroke-linecap="round" stroke-linejoin="round"/><path d="M681.137 149.231h-17.179a3.917 3.917 0 010-7.833h17.179v7.833z" fill="#54BE90" stroke="#140E3C" stroke-width="1.235" stroke-miterlimit="10" stroke-linecap="round" stroke-linejoin="round"/><path d="M690.483 181.805v-23.367c6.328-1.527 10.982-7.344 10.708-14.203-.291-7.251-6.184-13.145-13.435-13.436-8.006-.32-14.599 6.075-14.599 14.009 0 6.606 4.569 12.141 10.72 13.63v29.624h.004v12.343a8.043 8.043 0 008.044 8.044v9.532c0 1.349 1.037 2.513 2.386 2.576a2.507 2.507 0 002.627-2.504v-9.6h11.074v9.532c0 1.349 1.038 2.513 2.387 2.576a2.507 2.507 0 002.626-2.504v-24.06c0-8.047-6.526-14.573-14.574-14.573-2.926 0-5.645.864-7.93 2.348l-.038.033z" fill="#54BE90" stroke="#140E3C" stroke-width="1.235" stroke-miterlimit="10" stroke-linecap="round" stroke-linejoin="round"/><path d="M687.182 151.009a6.126 6.126 0 100-12.251 6.126 6.126 0 000 12.251z" fill="#fff" stroke="#140E3C" stroke-width="1.235" stroke-miterlimit="10" stroke-linecap="round" stroke-linejoin="round"/><path d="M687.182 147.477a2.593 2.593 0 10-.002-5.186 2.593 2.593 0 00.002 5.186zm13.339 61.79v9.271c0 1.054.81 1.964 1.863 2.015a1.958 1.958 0 002.054-1.956v-9.33h-3.917z" fill="#140E3C" stroke="#140E3C" stroke-width="1.235" stroke-miterlimit="10" stroke-linecap="round" stroke-linejoin="round"/><path opacity=".1" d="M706.979 195.043v-12.862a14.486 14.486 0 00-8.52-2.753c-1.096 0-2.162.122-3.187.35v15.265a5.856 5.856 0 005.856 5.856 5.858 5.858 0 005.851-5.856z" fill="#140E3C"/><g stroke="#140E3C" stroke-width="1.235" stroke-miterlimit="10" stroke-linecap="round" stroke-linejoin="round"><path d="M335.998 307.924v47.605c0 28.831-23.372 52.203-52.204 52.203-28.831 0-52.204-23.372-52.204-52.203v-47.605c0-28.831 23.373-52.204 52.204-52.204 28.832 0 52.204 23.373 52.204 52.204z" fill="#DE9C26"/><path d="M329.207 308.19v47.073c0 25.08-20.333 45.412-45.413 45.412-25.079 0-45.412-20.332-45.412-45.412V308.19c0-25.08 20.333-45.412 45.412-45.412 25.08 0 45.413 20.332 45.413 45.412z" fill="#140E3C"/></g><path d="M318.439 358.151a28.036 28.036 0 00-6.736-3.579l-.085-.101h.076c-.704-8.15-4.89-15.299-11.062-19.962 6.775-5.122 11.155-13.246 11.155-22.394 0-15.497-12.563-28.06-28.06-28.06-15.497 0-28.06 12.563-28.06 28.06 0 9.148 4.38 17.272 11.155 22.394-6.172 4.663-10.358 11.812-11.067 19.962h.08l-.092.101a28.136 28.136 0 00-6.737 3.579 28.023 28.023 0 00-8.68 10.139 44.77 44.77 0 002.23 5.91c.059-.198.118-.392.181-.59 1.551-4.772 4.473-9.123 8.659-12.133a24.156 24.156 0 014.317-2.474c.443 8.541 4.701 16.07 11.113 20.918-4.49 3.394-7.572 7.681-9.342 12.319a45.197 45.197 0 0026.357 8.427 45.2 45.2 0 0026.175-8.301c-1.762-4.688-4.852-9.026-9.38-12.445 6.408-4.844 10.666-12.373 11.113-20.914a23.757 23.757 0 014.304 2.47c4.187 3.01 7.108 7.365 8.66 12.133.096.295.185.59.269.885a44.639 44.639 0 002.281-5.919 28.03 28.03 0 00-8.824-10.425z" fill="#54BE90" stroke="#140E3C" stroke-width="1.235" stroke-miterlimit="10" stroke-linecap="round" stroke-linejoin="round"/><path d="M275.586 311.681a5.62 5.62 0 0011.24 0" fill="#54BE90"/><path d="M275.586 311.681a5.62 5.62 0 0011.24 0" stroke="#140E3C" stroke-width="1.235" stroke-miterlimit="10" stroke-linecap="round" stroke-linejoin="round"/><path d="M272.593 305.243a2.994 2.994 0 005.987 0" fill="#54BE90"/><path d="M272.593 305.243a2.994 2.994 0 005.987 0" stroke="#140E3C" stroke-width="1.235" stroke-miterlimit="10" stroke-linecap="round" stroke-linejoin="round"/><path d="M283.837 305.243a2.993 2.993 0 105.986 0" fill="#54BE90"/><path d="M283.837 305.243a2.993 2.993 0 105.986 0" stroke="#140E3C" stroke-width="1.235" stroke-miterlimit="10" stroke-linecap="round" stroke-linejoin="round"/><g stroke="#140E3C" stroke-width="1.235" stroke-miterlimit="10" stroke-linecap="round" stroke-linejoin="round"><path d="M224.786 379.614v-136.46H73.036v136.46h151.75z" fill="#DE9C26"/><path d="M217.993 372.557V250.212H79.83v122.345h138.163z" fill="#54BE90"/></g><path d="M148.911 352.249c22.55 0 40.83-18.28 40.83-40.83 0-22.549-18.28-40.83-40.83-40.83-22.549 0-40.829 18.281-40.829 40.83 0 22.55 18.28 40.83 40.829 40.83z" fill="#DE9C26" stroke="#140E3C" stroke-width="1.235" stroke-miterlimit="10" stroke-linecap="round" stroke-linejoin="round"/><path d="M132.627 312.932c0 8.997 7.293 16.286 16.285 16.286s16.286-7.293 16.286-16.286" fill="#DE9C26"/><path d="M132.627 312.932c0 8.997 7.293 16.286 16.285 16.286s16.286-7.293 16.286-16.286" stroke="#140E3C" stroke-width="1.235" stroke-miterlimit="10" stroke-linecap="round" stroke-linejoin="round"/><path d="M146.361 309.416c1.408-1.408-.017-5.116-3.183-8.282-3.166-3.165-6.874-4.591-8.281-3.183-1.408 1.407.017 5.115 3.183 8.281 3.166 3.166 6.874 4.591 8.281 3.184zm13.376-3.184c3.166-3.166 4.591-6.873 3.184-8.281-1.408-1.408-5.116.018-8.282 3.184-3.165 3.166-4.591 6.873-3.183 8.281 1.407 1.407 5.115-.018 8.281-3.184z" fill="#140E3C" stroke="#140E3C" stroke-width="1.235" stroke-miterlimit="10" stroke-linecap="round" stroke-linejoin="round"/><g stroke="#140E3C" stroke-width="1.235" stroke-miterlimit="10" stroke-linecap="round" stroke-linejoin="round"><path d="M224.788 236.363V69.507H105.735v166.856h119.053z" fill="#DE9C26"/><path d="M217.992 229.306V76.565h-105.47v152.741h105.47z" fill="#140E3C"/><path opacity=".4" d="M165.326 164.078c18.906 0 34.232-15.326 34.232-34.232s-15.326-34.232-34.232-34.232-34.232 15.326-34.232 34.232 15.326 34.232 34.232 34.232z" fill="#fff"/><path d="M182.328 145.162a5.097 5.097 0 100-10.194 5.097 5.097 0 000 10.194z" fill="#fff"/><path d="M182.327 142.072a2.007 2.007 0 100-4.014 2.007 2.007 0 000 4.014z" fill="#140E3C"/><path d="M165.258 121.844c-9.312 0-16.867 7.551-16.867 16.868v34.881c0 13.882-10.071 25.408-23.309 27.676-2.694.46-4.755 2.749-4.772 5.481-.025 3.452 3.061 6.117 6.463 5.552 18.595-3.082 32.777-19.241 32.777-38.709v38.785a5.707 5.707 0 005.708 5.708 5.707 5.707 0 005.709-5.708v-38.785c0 19.468 14.181 35.627 32.777 38.709 3.402.565 6.488-2.1 6.463-5.552-.021-2.732-2.083-5.021-4.772-5.481-13.234-2.268-23.309-13.794-23.309-27.676v-34.881c0-9.317-7.551-16.868-16.868-16.868z" fill="#54BE90"/><path d="M171.843 145.162a5.097 5.097 0 100-10.194 5.097 5.097 0 000 10.194z" fill="#fff"/><path d="M171.843 142.072a2.007 2.007 0 10-.001-4.013 2.007 2.007 0 00.001 4.013z" fill="#140E3C"/><path d="M165.258 121.844v-7.053m.068 49.287c18.906 0 34.232-15.326 34.232-34.232s-15.326-34.232-34.232-34.232-34.232 15.326-34.232 34.232 15.326 34.232 34.232 34.232z"/><path d="M182.092 165.14H148.56a2.891 2.891 0 01-2.892-2.892 2.891 2.891 0 012.892-2.892h33.532a2.891 2.891 0 012.892 2.892 2.891 2.891 0 01-2.892 2.892z" fill="#DE9C26"/><g fill="#DE9C26"><path d="M129.551 98.29a8.01 8.01 0 00.649 11.308l3.149 2.807 10.662-11.956-3.149-2.807a8.014 8.014 0 00-11.311.649z"/><path d="M145.288 99.007l-13.229 14.84a2.204 2.204 0 003.288 2.934l13.229-14.839a2.206 2.206 0 00-.177-3.112 2.206 2.206 0 00-3.111.177z"/></g><path d="M165.258 114.791a5.772 5.772 0 10.001-11.543 5.772 5.772 0 00-.001 11.543z" fill="#fff"/><path d="M165.259 111.288a2.268 2.268 0 100-4.536 2.268 2.268 0 000 4.536z" fill="#140E3C"/></g><g stroke="#140E3C" stroke-width="1.235" stroke-miterlimit="10" stroke-linecap="round" stroke-linejoin="round"><path d="M231.576 248.927h133.885V144.515H231.576v104.412z" fill="#DE9C26"/><path d="M238.633 242.135h119.77v-90.824h-119.77v90.824z" fill="#54BE90"/></g><path opacity=".1" d="M251.947 151.309h-13.309v90.824h13.309v-90.824zm26.614 0h-13.309v90.824h13.309v-90.824zm26.614 0h-13.31v90.824h13.31v-90.824zm26.614 0H318.48v90.824h13.309v-90.824zm26.619 0h-13.309v90.824h13.309v-90.824z" fill="#140E3C" stroke="#140E3C" stroke-width="1.235" stroke-miterlimit="10" stroke-linecap="round" stroke-linejoin="round"/><path d="M249.398 184.305v3.082h9.253v-3.082a4.627 4.627 0 00-9.253 0z" fill="#54BE90" stroke="#140E3C" stroke-width="1.235" stroke-miterlimit="10" stroke-linecap="round" stroke-linejoin="round"/><path d="M304.202 162.987a2.744 2.744 0 00-3.52 1.631l-7.31 19.962a2.746 2.746 0 001.631 3.52 2.746 2.746 0 003.521-1.632l7.31-19.961a2.742 2.742 0 00-1.632-3.52zm-10.298-3.77a2.745 2.745 0 00-3.52 1.632l-7.31 19.962a2.745 2.745 0 001.631 3.52 2.745 2.745 0 003.52-1.632l7.31-19.961a2.742 2.742 0 00-1.631-3.521z" fill="#DE9C26" stroke="#140E3C" stroke-width="1.235" stroke-miterlimit="10" stroke-linecap="round" stroke-linejoin="round"/><path d="M299.055 161.102a2.746 2.746 0 00-3.52 1.631l-7.31 19.962a2.745 2.745 0 005.152 1.889l7.31-19.962a2.747 2.747 0 00-1.632-3.52z" fill="#DE9C26" stroke="#140E3C" stroke-width="1.235" stroke-miterlimit="10" stroke-linecap="round" stroke-linejoin="round"/><path d="M249.398 191.898h16.732" stroke="#140E3C" stroke-width="1.235" stroke-miterlimit="10" stroke-linecap="round" stroke-linejoin="round"/><path d="M313.608 208.934l-9.325-9.325a17.378 17.378 0 001.475-7.028c0-9.65-7.82-17.47-17.47-17.47-7.841 0-14.473 5.164-16.686 12.276h-22.209v5.683a5.683 5.683 0 005.683 5.683h16.863c2.496 6.602 8.87 11.298 16.345 11.298 2.247 0 4.397-.43 6.37-1.206l9.519 9.52a6.671 6.671 0 009.435-9.431z" fill="#54BE90"/><path d="M313.608 208.934l-9.325-9.325a17.378 17.378 0 001.475-7.028c0-9.65-7.82-17.47-17.47-17.47-7.841 0-14.473 5.164-16.686 12.276h-22.209v5.683a5.683 5.683 0 005.683 5.683h16.863c2.496 6.602 8.87 11.298 16.345 11.298 2.247 0 4.397-.43 6.37-1.206l9.519 9.52a6.671 6.671 0 009.435-9.431z" stroke="#140E3C" stroke-width="1.235" stroke-miterlimit="10" stroke-linecap="round" stroke-linejoin="round"/><path d="M288.287 200.852a8.272 8.272 0 100-16.544 8.272 8.272 0 000 16.544z" fill="#fff" stroke="#140E3C" stroke-width="1.235" stroke-miterlimit="10" stroke-linecap="round" stroke-linejoin="round"/><path d="M288.288 195.671a3.09 3.09 0 100-6.18 3.09 3.09 0 000 6.18z" fill="#140E3C" stroke="#140E3C" stroke-width="1.235" stroke-miterlimit="10" stroke-linecap="round" stroke-linejoin="round"/><path d="M322.478 208.394c-3.583-3.157-9.051-2.807-12.205.776l-5.961 6.771c-3.157 3.583-2.807 9.051.776 12.204l17.39-19.751z" fill="#DE9C26" stroke="#140E3C" stroke-width="1.235" stroke-miterlimit="10" stroke-linecap="round" stroke-linejoin="round"/><path d="M254.023 182.75c-.86 0-1.556.695-1.556 1.555v3.082h3.111v-3.082c0-.855-.695-1.555-1.555-1.555z" fill="#140E3C" stroke="#140E3C" stroke-width="1.235" stroke-miterlimit="10" stroke-linecap="round" stroke-linejoin="round"/><path d="M258.651 184.305v3.082h9.254v-3.082a4.628 4.628 0 00-9.254 0z" fill="#54BE90" stroke="#140E3C" stroke-width="1.235" stroke-miterlimit="10" stroke-linecap="round" stroke-linejoin="round"/><path d="M266.387 193.336v-1.438h-4.312v1.438a2.155 2.155 0 004.312 0zm-9.152 0v-1.438h-4.313v1.438a2.155 2.155 0 004.313 0zm4.839 0v-1.438h-4.312v1.438a2.155 2.155 0 004.312 0z" fill="#fff" stroke="#140E3C" stroke-width="1.235" stroke-miterlimit="10" stroke-linecap="round" stroke-linejoin="round"/><path d="M263.276 182.75c-.86 0-1.555.695-1.555 1.555v3.082h3.111v-3.082c0-.855-.696-1.555-1.556-1.555zm95.129 26.256a37.537 37.537 0 00-18.069-4.6c-20.834 0-37.727 16.893-37.727 37.727h55.796v-33.127z" fill="#140E3C" stroke="#140E3C" stroke-width="1.235" stroke-miterlimit="10" stroke-linecap="round" stroke-linejoin="round"/><path d="M249.398 191.898h24.569" stroke="#140E3C" stroke-width="1.235" stroke-miterlimit="10" stroke-linecap="round" stroke-linejoin="round"/></svg>