<svg width="21000" height="3000" fill="none" xmlns="http://www.w3.org/2000/svg"><g clip-path="url(#clip0)"><path d="M7536.46 973.642v149.478l-192.93-155.605c-49.2-39.674-128.96-39.674-178.15 0-24.63 19.862-36.93 45.905-36.89 71.945-.04 26.03 12.25 52.09 36.89 71.95l334.13 269.49.11-.01c24.37 19.66 36.64 45.39 36.86 71.16v251.66l-192.93-155.61c-49.21-39.69-128.97-39.69-178.16-.01-49.2 39.68-49.19 104.01 0 143.69l334.13 269.49.11-.01c24.38 19.66 36.65 45.39 36.86 71.16v1015.46h252.01V2032.42c.21-25.77 12.48-51.49 36.86-71.16l.11.01 334.13-269.49c49.19-39.68 49.19-104.01 0-143.69-49.19-39.68-128.97-39.68-178.16.01l-192.93 155.61v-251.66c.22-25.77 12.49-51.49 36.86-71.16l.11.01 334.13-269.49c24.64-19.86 36.92-45.92 36.89-71.95.03-26.51-12.71-53.012-38.23-73-49.73-38.945-129.82-36.836-178.84 2.7l-190.9 153.97V973.654c0-56.259-56.68-101.809-126.43-101.62-69.49.188-125.64 45.625-125.64 101.608zm-5869.48 0v149.478l-192.93-155.605c-49.21-39.674-128.97-39.674-178.16 0-24.62 19.862-36.92 45.905-36.89 71.945-.03 26.03 12.25 52.09 36.89 71.95l334.13 269.49.11-.01c24.38 19.66 36.64 45.39 36.86 71.16v251.66l-192.93-155.61c-49.2-39.69-128.96-39.69-178.15-.01-49.21 39.68-49.19 104.01 0 143.69l334.13 269.49.11-.01c24.37 19.66 36.64 45.39 36.86 71.16v1015.46h252V2032.42c.22-25.77 12.48-51.49 36.86-71.16l.11.01 334.13-269.49c49.19-39.68 49.19-104.01 0-143.69-49.19-39.68-128.97-39.68-178.16.01l-192.92 155.61v-251.66c.21-25.77 12.48-51.49 36.86-71.16l.11.01 334.13-269.49c24.64-19.86 36.92-45.92 36.89-71.95.03-26.51-12.72-53.012-38.23-73-49.74-38.945-129.83-36.836-178.84 2.7l-190.91 153.97V973.654c0-56.259-56.68-101.809-126.43-101.62-69.49.188-125.63 45.625-125.63 101.608zm11148.52 0v149.478l-193-155.605c-49.2-39.674-129-39.674-178.1 0-24.7 19.862-37 45.905-36.9 71.945-.1 26.03 12.2 52.09 36.9 71.95l334.1 269.49.1-.01c24.4 19.66 36.6 45.39 36.9 71.16v251.66l-193-155.61c-49.2-39.69-129-39.69-178.1-.01-49.3 39.68-49.2 104.01 0 143.69l334.1 269.49.1-.01c24.4 19.66 36.6 45.39 36.9 71.16v1015.46h252V2032.42c.2-25.77 12.4-51.49 36.8-71.16l.1.01 334.2-269.49c49.2-39.68 49.2-104.01 0-143.69-49.2-39.68-129-39.68-178.2.01l-192.9 155.61v-251.66c.2-25.77 12.5-51.49 36.8-71.16l.1.01 334.2-269.49c24.6-19.86 36.9-45.92 36.9-71.95 0-26.51-12.8-53.012-38.3-73-49.7-38.945-129.8-36.836-178.8 2.7l-190.9 153.97V973.654c0-56.259-56.7-101.809-126.4-101.62-69.5.188-125.6 45.625-125.6 101.608zM9468.91-530.68v257.893l-332.86-268.464c-84.88-68.451-222.49-68.451-307.37 0-42.48 34.275-63.7 79.197-63.65 124.119-.06 44.922 21.14 89.869 63.65 124.132l576.45 464.951.17-.025c42.06 33.924 63.22 78.306 63.59 122.763v434.167l-332.85-268.465c-84.89-68.463-222.49-68.463-307.37-.025-84.89 68.463-84.89 179.462 0 247.912l576.44 464.952.18-.03c42.06 33.93 63.21 78.31 63.58 122.77v1751.91h434.75V1295.97c.38-44.46 21.53-88.84 63.59-122.77l.17.03 576.42-464.952c84.9-68.45 84.9-179.437 0-247.912-84.8-68.45-222.5-68.45-307.3.025l-332.89 268.465V294.702c.37-44.457 21.53-88.84 63.59-122.763l.17.025 576.43-464.952c42.5-34.275 63.7-79.222 63.7-124.144 0-45.726-22-91.464-66-125.94-85.8-67.195-224-63.541-308.5 4.658l-329.39 265.64V-530.68c0-97.063-97.77-175.658-218.12-175.319-119.7.327-216.58 78.733-216.58 175.319z" fill="#1C1F4E" stroke="#140E3C" stroke-width="3" stroke-miterlimit="10" stroke-linecap="round" stroke-linejoin="round"/><path d="M9682.63 1858.52c81.01 0 146.68-52.97 146.68-118.3 0-65.34-65.67-118.31-146.68-118.31s-146.68 52.97-146.68 118.31c0 65.33 65.67 118.3 146.68 118.3z" fill="#000002" stroke="#140E3C" stroke-width="3" stroke-miterlimit="10" stroke-linecap="round" stroke-linejoin="round"/><path d="M9642.76 1731.45c-19.13-15.43-55.24-23.69-55.24-23.69s10.24 29.13 29.38 44.56c19.13 15.43 55.24 23.69 55.24 23.69s-10.24-29.13-29.38-44.56z" fill="#fff" stroke="#000002" stroke-width="3" stroke-miterlimit="10" stroke-linecap="round" stroke-linejoin="round"/><path d="M9659.58 1750.94c-8.41 2.73-15.12 8.16-18.53 14.94 15.9 6.65 31.07 10.13 31.07 10.13s-4.29-12.25-12.54-25.07z" fill="#DE9C26" stroke="#000002" stroke-width="3" stroke-miterlimit="10" stroke-linecap="round" stroke-linejoin="round"/><path d="M9756.37 1752.31c19.13-15.43 29.37-44.56 29.37-44.56s-36.11 8.26-55.24 23.69c-19.13 15.43-29.38 44.56-29.38 44.56s36.12-8.26 55.25-23.69z" fill="#fff" stroke="#000002" stroke-width="3" stroke-miterlimit="10" stroke-linecap="round" stroke-linejoin="round"/><path d="M9732.21 1765.88c-3.39-6.78-10.12-12.19-18.52-14.94-8.25 12.82-12.57 25.06-12.57 25.06s15.2-3.48 31.09-10.12z" fill="#DE9C26" stroke="#000002" stroke-width="3" stroke-miterlimit="10" stroke-linecap="round" stroke-linejoin="round"/><path d="M14671.9-530.68v257.893l-332.8-268.464c-84.9-68.451-222.5-68.451-307.4 0-42.5 34.275-63.7 79.197-63.7 124.119s21.2 89.869 63.7 124.132l576.4 464.951.2-.025c42.1 33.924 63.2 78.306 63.6 122.763v434.167l-332.8-268.465c-84.9-68.463-222.5-68.463-307.4-.025-84.9 68.463-84.9 179.462 0 247.912l576.4 464.952.2-.03c42.1 33.93 63.2 78.31 63.6 122.77v1751.91h434.7V1295.97c.4-44.46 21.6-88.84 63.6-122.77l.2.03 576.5-464.952c84.8-68.45 84.8-179.437 0-247.912-84.9-68.45-222.5-68.45-307.4.025l-332.9 268.465V294.702c.4-44.457 21.6-88.84 63.6-122.763l.2.025 576.4-464.952c42.5-34.275 63.7-79.222 63.7-124.144 0-45.726-21.9-91.464-66-125.94-85.8-67.195-224-63.541-308.5 4.658l-329.4 265.64V-530.68c0-97.063-97.7-175.658-218.1-175.319-119.7.327-216.6 78.733-216.6 175.319zm4246.3 0v257.893l-332.9-268.464c-84.9-68.451-222.5-68.451-307.4 0-42.4 34.275-63.7 79.197-63.6 124.119-.1 44.922 21.1 89.869 63.6 124.132l576.5 464.951.2-.025c42 33.924 63.2 78.306 63.6 122.763v434.167l-332.9-268.465c-84.9-68.463-222.5-68.463-307.4-.025-84.9 68.463-84.9 179.462 0 247.912l576.5 464.952.1-.03c42.1 33.93 63.3 78.31 63.6 122.77v1751.91h434.8V1295.97c.4-44.46 21.5-88.84 63.6-122.77l.1.03 576.5-464.952c84.9-68.45 84.9-179.437 0-247.912-84.9-68.45-222.5-68.45-307.4.025l-332.8 268.465V294.702c.3-44.457 21.5-88.84 63.6-122.763l.1.025 576.5-464.952c42.5-34.275 63.7-79.222 63.6-124.144.1-45.726-21.9-91.464-65.9-125.94-85.8-67.195-224-63.541-308.6 4.658l-329.3 265.64V-530.68c0-97.063-97.8-175.658-218.1-175.319-119.8.327-216.6 78.733-216.6 175.319z" fill="#1C1F4E" stroke="#140E3C" stroke-width="3" stroke-miterlimit="10" stroke-linecap="round" stroke-linejoin="round"/><path d="M16317 1283.29c0-5.88-5.9-10.65-13.2-10.65h-118.7c-3.3 0-6.7-1.04-9.3-3.11v-.02l-35-28.23c-5.2-4.16-13.5-4.16-18.7 0-5.1 4.15-5.1 10.9 0 15.05l33.4 26.96-33.4 26.95c-5.1 4.16-5.1 10.9 0 15.06 5.2 4.15 13.5 4.15 18.7 0l35-28.24v-.01c2.6-2.07 5.9-3.12 9.3-3.12h118.7c7.3.02 13.2-4.75 13.2-10.64 0 .01 0 .01 0 0z" fill="#54BE90"/><path d="M16317 1283.29c0-5.88-5.9-10.65-13.2-10.65h-118.7s0 0 0 0c-3.3 0-6.7-1.04-9.3-3.11v-.02l-35-28.23c-5.2-4.16-13.5-4.16-18.7 0-5.1 4.15-5.1 10.9 0 15.05l33.4 26.96-33.4 26.95c-5.1 4.16-5.1 10.9 0 15.06 5.2 4.15 13.5 4.15 18.7 0l35-28.24v-.01c2.6-2.07 5.9-3.12 9.3-3.12 0 0 0 0 0 0h118.7c7.3.02 13.2-4.75 13.2-10.64zm0 0c0 .01 0 .01 0 0z" stroke="#140E3C" stroke-width="3" stroke-miterlimit="10" stroke-linecap="round" stroke-linejoin="round"/><path d="M16416.5 1169.96c-8-2.36-16.8.96-19.7 7.41l-41.1 90.51c-2.9 6.46 1.2 13.6 9.2 15.96 8 2.36 16.8-.95 19.7-7.41l41.1-90.51c3-6.45-1.2-13.59-9.2-15.96zm-57.9-17.11c-8-2.36-16.8.96-19.8 7.41l-41 90.51c-3 6.45 1.1 13.6 9.1 15.96 8 2.36 16.9-.96 19.8-7.41l41.1-90.51c2.9-6.45-1.2-13.58-9.2-15.96z" fill="#54BE90" stroke="#140E3C" stroke-width="3" stroke-miterlimit="10" stroke-linecap="round" stroke-linejoin="round"/><path d="M16387.6 1161.42c-8-2.36-16.9.95-19.8 7.4l-41.1 90.51c-2.9 6.46 1.2 13.6 9.2 15.96 8 2.36 16.9-.95 19.8-7.41l41.1-90.51c2.9-6.45-1.2-13.59-9.2-15.95z" fill="#54BE90" stroke="#140E3C" stroke-width="3" stroke-miterlimit="10" stroke-linecap="round" stroke-linejoin="round"/><path d="M16568.3 1348.25h-267.9c-44.4 0-80.5-29.08-80.5-64.96 0-35.87 36-64.96 80.5-64.96h267.9v129.92z" fill="#DE9C26" stroke="#140E3C" stroke-width="3" stroke-miterlimit="10" stroke-linecap="round" stroke-linejoin="round"/><path d="M16301.2 1313.52c22.4 0 40.6-14.63 40.6-32.68 0-18.05-18.2-32.68-40.6-32.68-22.3 0-40.5 14.63-40.5 32.68 0 18.05 18.2 32.68 40.5 32.68z" fill="#fff" stroke="#140E3C" stroke-width="3" stroke-miterlimit="10" stroke-linecap="round" stroke-linejoin="round"/><path d="M16301.2 1293.69c8.8 0 16-5.75 16-12.85s-7.2-12.86-16-12.86-15.9 5.76-15.9 12.86 7.1 12.85 15.9 12.85z" fill="#140E3C" stroke="#140E3C" stroke-width="3" stroke-miterlimit="10" stroke-linecap="round" stroke-linejoin="round"/><path d="M17132.5 2953.44h-308v-129.91h308l-82.7 64.96 82.7 64.95z" fill="#DE9C26" stroke="#140E3C" stroke-width="3" stroke-miterlimit="10" stroke-linecap="round" stroke-linejoin="round"/><path d="M16895.3 3269.99l.1-1631.66v-632.9c.3-37.488 18.1-74.903 53.6-103.515l.1.012 486.1-392.031c71.5-57.716 71.5-151.301 0-209.03-71.6-57.715-187.6-57.715-259.2.013l-280.6 226.355V161.166c.3-37.489 18.1-74.903 53.6-103.516l.1.012 486.1-392.031c35.8-28.902 53.7-66.793 53.6-104.672.1-38.556-18.5-77.113-55.6-106.191-72.3-56.661-188.8-53.585-260.2 3.93l-277.7 223.982v-217.441c0-81.846-82.4-148.112-183.9-147.823-100.9.276-182.6 66.379-182.6 147.823v217.441l-280.7-226.355c-71.5-57.715-187.6-57.715-259.1 0-35.9 28.902-53.7 66.781-53.7 104.647 0 37.878 17.8 75.769 53.7 104.671l486 392.032.2-.013c35.4 28.613 53.3 66.027 53.6 103.517v366.068l-280.7-226.356c-71.5-57.728-187.6-57.728-259.1-.012-71.6 57.728-71.6 151.314 0 209.029l486 392.032.2-.013c35.4 28.613 53.3 66.027 53.6 103.513V3270h366.5v-.01z" fill="#1C1F4E" stroke="#140E3C" stroke-width="3" stroke-miterlimit="10" stroke-linecap="round" stroke-linejoin="round"/><path d="M16528.7 1799.97c-84.3 0-152.6-55.12-152.6-123.11 0-67.98 68.3-123.1 152.6-123.1h366.5v-116.28c84.3 0 152.6 55.11 152.6 123.1 0 67.98-68.3 123.1-152.6 123.1h-366.5v116.29z" fill="#DE9C26" stroke="#140E3C" stroke-width="3" stroke-miterlimit="10" stroke-linecap="round" stroke-linejoin="round"/><path opacity=".1" d="M16895.2 1683.67h-366.5v42.06h366.5v-42.06z" fill="#140E3C" stroke="#140E3C" stroke-width="3" stroke-miterlimit="10" stroke-linecap="round" stroke-linejoin="round"/><path d="M16528.7 2251.67c-84.3 0-152.6-55.12-152.6-123.1 0-67.99 68.3-123.1 152.6-123.1h366.5v-116.29c84.3 0 152.6 55.12 152.6 123.1 0 67.99-68.3 123.11-152.6 123.11h-366.5v116.28z" fill="#DE9C26" stroke="#140E3C" stroke-width="3" stroke-miterlimit="10" stroke-linecap="round" stroke-linejoin="round"/><path opacity=".1" d="M16895.2 2135.39h-366.5v42.06h366.5v-42.06z" fill="#140E3C" stroke="#140E3C" stroke-width="3" stroke-miterlimit="10" stroke-linecap="round" stroke-linejoin="round"/><path d="M16528.7 2703.39c-84.3 0-152.6-55.12-152.6-123.1 0-67.99 68.3-123.1 152.6-123.1h366.5V2340.9c84.3 0 152.6 55.12 152.6 123.1 0 67.99-68.3 123.1-152.6 123.1h-366.5v116.29z" fill="#DE9C26" stroke="#140E3C" stroke-width="3" stroke-miterlimit="10" stroke-linecap="round" stroke-linejoin="round"/><path opacity=".1" d="M16895.2 2587.1h-366.5v42.06h366.5v-42.06z" fill="#140E3C" stroke="#140E3C" stroke-width="3" stroke-miterlimit="10" stroke-linecap="round" stroke-linejoin="round"/></g><defs><clipPath id="clip0"><path fill="#fff" d="M0 0h21000v3000H0z"/></clipPath></defs></svg>